<?xml version="1.0" encoding="utf-8"?>
<!-- Generator: Adobe Illustrator 26.3.1, SVG Export Plug-In . SVG Version: 6.00 Build 0)  -->
<svg version="1.1" id="Layer_1" xmlns="http://www.w3.org/2000/svg" xmlns:xlink="http://www.w3.org/1999/xlink" x="0px" y="0px"
	 viewBox="0 0 399 274" style="enable-background:new 0 0 399 274;" xml:space="preserve">
<style type="text/css">
	.st0{clip-path:url(#SVGID_00000083051014697367252940000015797279093102195350_);}
	.st1{fill:#007AFF;}
	.st2{fill:#1A164A;filter:url(#Adobe_OpacityMaskFilter);}
	.st3{mask:url(#mask0_00000034768369962889450790000010313159169917360772_);}
	.st4{fill-rule:evenodd;clip-rule:evenodd;fill:url(#SVGID_00000013898592099093580190000008150875131418940328_);}
	.st5{fill-rule:evenodd;clip-rule:evenodd;fill:#14BEFD;}
	.st6{fill-rule:evenodd;clip-rule:evenodd;fill:url(#SVGID_00000134243828376961437550000002671034287408620210_);}
	.st7{opacity:0.5;}
	
		.st8{fill:none;stroke:url(#SVGID_00000020374262787476013320000016393625583156725914_);stroke-width:6.7812;stroke-linecap:round;stroke-dasharray:67.81,33.91;}
	.st9{opacity:0.2;}
	
		.st10{fill:none;stroke:url(#SVGID_00000106857596436198329400000008321134524250625466_);stroke-width:3.3906;stroke-linecap:round;stroke-dasharray:33.91,16.95;}
	
		.st11{fill:none;stroke:url(#SVGID_00000052786508471766255000000003778879122954397094_);stroke-width:10.1718;stroke-linecap:round;stroke-dasharray:67.81,33.91;}
	.st12{fill:#14BEFD;}
	.st13{clip-path:url(#SVGID_00000013166054049618410180000007620731506135992712_);}
	.st14{fill:#FFFFFF;fill-opacity:0.6;}
	.st15{fill:#FFFFFF;fill-opacity:0.3;}
	.st16{clip-path:url(#SVGID_00000025430556705207873240000001341355901690546098_);}
	.st17{fill:#EB6A5D;}
	.st18{fill:#F3BE4F;}
	.st19{fill:#64C354;}
	.st20{fill:#8E8E8E;}
	.st21{fill:#FFC800;}
	.st22{fill:#A8A8A8;}
	.st23{fill:#1B73BA;}
	.st24{fill:#1C88C7;}
	.st25{fill:#FFFFFF;}
	.st26{fill:#CD6799;}
</style>
<g>
	<g>
		<defs>
			<path id="SVGID_1_" d="M224.7,13.6h150.6c3.8,0,6.8,3.1,6.8,6.8v232.8c0,3.8-3.1,6.8-6.8,6.8H224.7c-3.8,0-6.8-3.1-6.8-6.8V20.5
				C217.8,16.7,220.9,13.6,224.7,13.6z"/>
		</defs>
		<clipPath id="SVGID_00000139261113417453857720000009665141122925009564_">
			<use xlink:href="#SVGID_1_"  style="overflow:visible;"/>
		</clipPath>
		<g style="clip-path:url(#SVGID_00000139261113417453857720000009665141122925009564_);">
			<path class="st1" d="M186.3,13.6h187.3c4.7,0,8.5,3.1,8.5,6.8v232.8c0,3.8-3.8,6.8-8.5,6.8H186.3c-4.7,0-8.5-3.1-8.5-6.8V20.5
				C177.8,16.7,181.6,13.6,186.3,13.6z"/>
		</g>
	</g>
</g>
<defs>
	<filter id="Adobe_OpacityMaskFilter" filterUnits="userSpaceOnUse" x="-834.2" y="-198.5" width="692.5" height="602.2">
		<feColorMatrix  type="matrix" values="1 0 0 0 0  0 1 0 0 0  0 0 1 0 0  0 0 0 1 0"/>
	</filter>
</defs>
<mask maskUnits="userSpaceOnUse" x="-834.2" y="-198.5" width="692.5" height="602.2" id="mask0_00000034768369962889450790000010313159169917360772_">
	<path class="st2" d="M-970.3,77.5h771.8c5.2,0,9.5,4.2,9.5,9.5v573.8c0,5.2-4.2,9.5-9.5,9.5h-771.8V77.5z"/>
</mask>
<g class="st3">
	
		<linearGradient id="SVGID_00000091700749400227144870000010119602185291319710_" gradientUnits="userSpaceOnUse" x1="-787.5393" y1="271.2216" x2="-278.37" y2="-51.7671" gradientTransform="matrix(1 0 0 -1 0 276)">
		<stop  offset="0" style="stop-color:#E1467C"/>
		<stop  offset="1" style="stop-color:#FF9CE3"/>
	</linearGradient>
	<path style="fill-rule:evenodd;clip-rule:evenodd;fill:url(#SVGID_00000091700749400227144870000010119602185291319710_);" d="
		M-259,294.4c36.3-88.9,96.4-241.7-59-330.6s-227.6-32-295.5-5.8C-681.3-15.8-849.2,1.3-824,107.3c25.3,106,30.9,291.4,151.5,291.4
		c120.7,0,104.5-50.2,182-59.1C-413,330.6-295.3,383.2-259,294.4z"/>
	<path class="st5" d="M-259,294.4c36.3-88.9,96.4-241.7-59-330.6s-227.6-32-295.5-5.8C-681.3-15.8-849.2,1.3-824,107.3
		c25.3,106,30.9,291.4,151.5,291.4c120.7,0,104.5-50.2,182-59.1C-413,330.6-295.3,383.2-259,294.4z"/>
	<g>
		
			<linearGradient id="SVGID_00000132775834516947910250000003830443769190934965_" gradientUnits="userSpaceOnUse" x1="-199.1037" y1="-8.9639" x2="-778.9349" y2="312.3342" gradientTransform="matrix(1 0 0 -1 0 276)">
			<stop  offset="0" style="stop-color:#E0695B"/>
			<stop  offset="1" style="stop-color:#3913B8"/>
		</linearGradient>
		<path style="fill-rule:evenodd;clip-rule:evenodd;fill:url(#SVGID_00000132775834516947910250000003830443769190934965_);" d="
			M-798,1.6c-34.1,99.9-90,271.5,86.2,359c176.3,87.5,251.9,20.3,324.7-12.9c72.8-33.2,256-62.9,221.3-177.6
			c-34.6-114.7-52.9-317.7-185.3-309.9c-132.4,7.9-111.4,61.9-195.9,76.8C-631.4-48.3-763.9-98.3-798,1.6z"/>
	</g>
	<g class="st7">
		
			<linearGradient id="SVGID_00000177442373691123597180000003515990447597749386_" gradientUnits="userSpaceOnUse" x1="-199.731" y1="13.7367" x2="-765.2366" y2="327.097" gradientTransform="matrix(1 0 0 -1 0 276)">
			<stop  offset="0" style="stop-color:#FF5A3D"/>
			<stop  offset="1" style="stop-color:#2FB8FF"/>
		</linearGradient>
		
			<path style="fill:none;stroke:url(#SVGID_00000177442373691123597180000003515990447597749386_);stroke-width:6.7812;stroke-linecap:round;stroke-dasharray:67.81,33.91;" d="
			M-785-14.6c-33.4,97.8-88.2,265.9,84.4,351.5c172.6,85.6,246.6,19.8,317.9-12.7c71.3-32.5,250.6-61.6,216.7-173.9
			C-199.9,38.1-217.7-160.7-347.4-153c-129.7,7.7-109.1,60.7-191.8,75.2S-751.7-112.4-785-14.6z"/>
	</g>
	<g class="st9">
		
			<linearGradient id="SVGID_00000068673978054384791270000016374702156119941253_" gradientUnits="userSpaceOnUse" x1="-216.2055" y1="22.8005" x2="-727.4144" y2="306.0732" gradientTransform="matrix(1 0 0 -1 0 276)">
			<stop  offset="0" style="stop-color:#FF5A3D"/>
			<stop  offset="1" style="stop-color:#2FB8FF"/>
		</linearGradient>
		
			<path style="fill:none;stroke:url(#SVGID_00000068673978054384791270000016374702156119941253_);stroke-width:3.3906;stroke-linecap:round;stroke-dasharray:33.91,16.95;" d="
			M-744.5,2.5c-29.2,86.7-77.1,235.6,78.5,313c155.7,77.4,221.7,19.5,285.4-8.8c63.8-28.3,224.6-52.8,193.3-152.8
			s-48.9-276.9-165.3-271c-116.4,5.8-97.5,53.1-171.7,65.3C-598.3-39.7-715.3-84.2-744.5,2.5z"/>
	</g>
	<g>
		
			<linearGradient id="SVGID_00000053503548849965422120000018389431182311797419_" gradientUnits="userSpaceOnUse" x1="-186.5749" y1="40.4058" x2="-769.8378" y2="363.6069" gradientTransform="matrix(1 0 0 -1 0 276)">
			<stop  offset="0" style="stop-color:#FF6C6C"/>
			<stop  offset="1" style="stop-color:#2FB8FF"/>
		</linearGradient>
		
			<path style="fill:none;stroke:url(#SVGID_00000053503548849965422120000018389431182311797419_);stroke-width:10.1718;stroke-linecap:round;stroke-dasharray:67.81,33.91;" d="
			M-790.8-50.2c-34.5,101.1-91.1,274.7,87.2,363.2s254.8,20.5,328.5-13.1s259-63.6,223.9-179.6c-35-116-53.5-321.5-187.4-313.5
			c-134,8-112.7,62.7-198.1,77.6C-622.2-100.6-756.3-151.2-790.8-50.2z"/>
	</g>
</g>
<path class="st12" d="M363.7,237.2H239.8c-1.2,0-2.2-1-2.2-2.2v-5c0-1.2,1-2.2,2.2-2.2h123.9c1.2,0,2.2,1,2.2,2.2v5
	C365.9,236.2,364.9,237.2,363.7,237.2z"/>
<g>
	<defs>
		<rect id="SVGID_00000067194907755927232550000006413543824650316702_" x="232.9" y="31.7" width="68.9" height="44.4"/>
	</defs>
	<clipPath id="SVGID_00000058575320184512626690000010684940371278067634_">
		<use xlink:href="#SVGID_00000067194907755927232550000006413543824650316702_"  style="overflow:visible;"/>
	</clipPath>
	<g style="clip-path:url(#SVGID_00000058575320184512626690000010684940371278067634_);">
		<path class="st14" d="M234.4,31.7h65.7c0.9,0,1.6,0.7,1.6,1.6l0,0c0,0.9-0.7,1.6-1.6,1.6h-65.7c-0.9,0-1.6-0.7-1.6-1.6l0,0
			C232.9,32.4,233.6,31.7,234.4,31.7z"/>
		<path class="st14" d="M234.4,42.3h35.7c0.9,0,1.6,0.7,1.6,1.6l0,0c0,0.9-0.7,1.6-1.6,1.6h-35.7c-0.9,0-1.6-0.7-1.6-1.6l0,0
			C232.9,43,233.6,42.3,234.4,42.3z"/>
		<path class="st15" d="M236,52.9h62.6c0.5,0,0.9,0.4,0.9,0.9l0,0c0,0.5-0.4,0.9-0.9,0.9H236c-0.5,0-0.9-0.4-0.9-0.9l0,0
			C235.1,53.4,235.5,52.9,236,52.9z"/>
		<path class="st15" d="M236,59.5h62.6c0.5,0,0.9,0.4,0.9,0.9l0,0c0,0.5-0.4,0.9-0.9,0.9H236c-0.5,0-0.9-0.4-0.9-0.9l0,0
			C235.1,59.9,235.5,59.5,236,59.5z"/>
		<path class="st15" d="M236,66.3h62.6c0.5,0,0.9,0.4,0.9,0.9l0,0c0,0.5-0.4,0.9-0.9,0.9H236c-0.5,0-0.9-0.4-0.9-0.9l0,0
			C235.1,66.8,235.5,66.3,236,66.3z"/>
		<path class="st15" d="M236,72.9h62.6c0.5,0,0.9,0.4,0.9,0.9l0,0c0,0.5-0.4,0.9-0.9,0.9H236c-0.5,0-0.9-0.4-0.9-0.9l0,0
			C235.1,73.3,235.5,72.9,236,72.9z"/>
	</g>
</g>
<g>
	<defs>
		<rect id="SVGID_00000158020024727103894290000012215719411011264669_" x="12.6" y="14.6" width="37" height="8.2"/>
	</defs>
	<clipPath id="SVGID_00000150060604765467488300000010990616356861749385_">
		<use xlink:href="#SVGID_00000158020024727103894290000012215719411011264669_"  style="overflow:visible;"/>
	</clipPath>
	<g style="clip-path:url(#SVGID_00000150060604765467488300000010990616356861749385_);">
		<path class="st17" d="M16.7,14.6L16.7,14.6c2.3,0,4.1,1.8,4.1,4.1v0c0,2.3-1.8,4.1-4.1,4.1l0,0c-2.3,0-4.1-1.8-4.1-4.1v0
			C12.6,16.4,14.4,14.6,16.7,14.6z"/>
		<path class="st18" d="M31.1,14.6L31.1,14.6c2.3,0,4.1,1.8,4.1,4.1v0c0,2.3-1.8,4.1-4.1,4.1l0,0c-2.3,0-4.1-1.8-4.1-4.1v0
			C27,16.4,28.8,14.6,31.1,14.6z"/>
		<path class="st19" d="M45.4,14.6L45.4,14.6c2.3,0,4.1,1.8,4.1,4.1v0c0,2.3-1.8,4.1-4.1,4.1h0c-2.3,0-4.1-1.8-4.1-4.1v0
			C41.3,16.4,43.2,14.6,45.4,14.6z"/>
	</g>
</g>
<g>
	<rect x="13" y="48.5" class="st20" width="6.5" height="2.5"/>
	<rect x="24.1" y="48.5" class="st20" width="104.3" height="2.5"/>
	<rect x="132.4" y="48.5" class="st21" width="12.3" height="2.5"/>
	<rect x="152" y="82.3" class="st20" width="12.3" height="2.5"/>
	<rect x="147.3" y="48.5" class="st22" width="41.4" height="2.5"/>
	<rect x="19.4" y="55.3" class="st20" width="6.5" height="2.5"/>
	<rect x="30.4" y="55.3" class="st22" width="48.6" height="2.5"/>
	<rect x="130.7" y="82.3" class="st22" width="18.4" height="2.5"/>
	<rect x="24.1" y="75.5" class="st22" width="46.4" height="2.5"/>
	<rect x="30.4" y="62" class="st21" width="32.6" height="2.5"/>
	<rect x="140.6" y="68.8" class="st22" width="32.6" height="2.5"/>
	<rect x="66.6" y="62" class="st22" width="82.2" height="2.5"/>
	<rect x="24.1" y="82.3" class="st21" width="102.4" height="2.5"/>
	<rect x="146" y="55.3" class="st21" width="53.8" height="2.5"/>
	<rect x="82.1" y="55.3" class="st20" width="61.2" height="2.5"/>
	<rect x="171.5" y="62" class="st20" width="20.9" height="2.5"/>
	<rect x="19.4" y="62" class="st20" width="6.5" height="2.5"/>
	<rect x="13" y="68.8" class="st22" width="6.5" height="2.5"/>
	<rect x="24.1" y="68.8" class="st20" width="38.2" height="2.5"/>
	<rect x="30.4" y="89.1" class="st20" width="38.2" height="2.5"/>
	<rect x="131.8" y="95.8" class="st21" width="49.2" height="2.5"/>
	<rect x="71.7" y="89.1" class="st21" width="68.5" height="2.5"/>
	<rect x="65" y="95.8" class="st20" width="63.5" height="2.5"/>
	<rect x="30.4" y="95.8" class="st22" width="11.1" height="2.5"/>
	<rect x="73.2" y="75.5" class="st20" width="71.5" height="2.5"/>
	<rect x="147.3" y="75.5" class="st21" width="46.4" height="2.5"/>
	<rect x="66.2" y="68.8" class="st21" width="71.4" height="2.5"/>
	<rect x="13" y="75.5" class="st20" width="6.5" height="2.5"/>
	<rect x="13" y="82.3" class="st20" width="6.5" height="2.5"/>
	<rect x="19.4" y="89.1" class="st22" width="6.5" height="2.5"/>
	<rect x="19.4" y="95.8" class="st20" width="6.5" height="2.5"/>
	<rect x="13" y="101.5" class="st20" width="6.5" height="2.5"/>
	<rect x="24.1" y="101.5" class="st20" width="75.7" height="2.5"/>
	<rect x="19.4" y="108.2" class="st20" width="6.5" height="2.5"/>
	<rect x="30.4" y="108.2" class="st22" width="48.6" height="2.5"/>
	<rect x="24.1" y="128.5" class="st22" width="46.4" height="2.5"/>
	<rect x="30.4" y="115" class="st21" width="32.6" height="2.5"/>
	<rect x="66.6" y="115" class="st22" width="82.2" height="2.5"/>
	<rect x="24.1" y="135.2" class="st21" width="102.4" height="2.5"/>
	<rect x="146" y="108.2" class="st21" width="53.8" height="2.5"/>
	<rect x="82.1" y="108.2" class="st20" width="61.2" height="2.5"/>
	<rect x="171.5" y="115" class="st20" width="20.9" height="2.5"/>
	<rect x="19.4" y="115" class="st20" width="6.5" height="2.5"/>
	<rect x="13" y="121.7" class="st22" width="6.5" height="2.5"/>
	<rect x="24.1" y="121.7" class="st20" width="38.2" height="2.5"/>
	<rect x="73.2" y="128.5" class="st20" width="71.5" height="2.5"/>
	<rect x="66.2" y="121.7" class="st21" width="71.4" height="2.5"/>
	<rect x="13" y="128.5" class="st20" width="6.5" height="2.5"/>
	<g>
		<path class="st21" d="M17,41.9c0.2,0.2,0.2,0.6,0,0.9c-0.1,0.1-0.2,0.2-0.4,0.2c-0.2,0-0.3-0.1-0.4-0.2l-2.5-2.7c0,0,0,0,0-0.1
			c0,0,0,0,0,0c0,0,0,0,0-0.1c0,0,0,0,0,0c0,0,0,0,0-0.1c0,0,0,0,0,0c0,0,0,0,0-0.1c0,0,0,0,0-0.1c0,0,0,0,0,0c0,0,0,0,0-0.1
			c0,0,0,0,0,0c0,0,0,0,0-0.1c0,0,0,0,0,0c0,0,0-0.1,0-0.1c0,0,0,0,0,0c0,0,0,0,0.1-0.1l2.5-2.7c0.2-0.2,0.6-0.2,0.8,0
			c0.2,0.2,0.2,0.6,0,0.9l-2.1,2.3L17,41.9z"/>
		<path class="st21" d="M19.2,42.2l2.2-5.5c0.1-0.3,0.4-0.4,0.6-0.3c0.2,0.1,0.4,0.4,0.2,0.7l-2.2,5.5c-0.1,0.2-0.3,0.3-0.5,0.3
			c-0.1,0-0.1,0-0.2,0C19.2,42.8,19.1,42.5,19.2,42.2z"/>
		<path class="st21" d="M26.6,40C26.6,40,26.6,40,26.6,40C26.6,40,26.5,40,26.6,40L24,42.8c-0.1,0.1-0.3,0.2-0.4,0.2
			c-0.2,0-0.3-0.1-0.4-0.2c-0.2-0.2-0.2-0.6,0-0.9l2.1-2.3l-2.1-2.3c-0.2-0.2-0.2-0.6,0-0.9c0.2-0.2,0.6-0.2,0.8,0l2.5,2.7
			c0,0,0,0,0.1,0.1c0,0,0,0,0,0c0,0,0,0.1,0,0.1c0,0,0,0,0,0c0,0,0,0,0,0.1c0,0,0,0,0,0c0,0,0,0,0,0.1c0,0,0,0,0,0c0,0,0,0,0,0
			c0,0,0,0,0,0.1c0,0,0,0,0,0c0,0,0,0.1,0,0.1C26.6,39.9,26.6,39.9,26.6,40C26.6,39.9,26.6,39.9,26.6,40z"/>
	</g>
</g>
<g>
	<rect x="13" y="225.8" class="st20" width="6.5" height="2.4"/>
	<rect x="24.1" y="225.8" class="st20" width="104.3" height="2.4"/>
	<rect x="132.4" y="225.8" class="st21" width="12.3" height="2.4"/>
	<rect x="152" y="194.3" class="st20" width="12.3" height="2.4"/>
	<rect x="147.3" y="225.8" class="st22" width="41.4" height="2.4"/>
	<rect x="19.4" y="219.5" class="st20" width="6.5" height="2.4"/>
	<rect x="30.4" y="219.5" class="st22" width="48.6" height="2.4"/>
	<rect x="130.7" y="194.3" class="st22" width="18.4" height="2.4"/>
	<rect x="24.1" y="200.6" class="st22" width="46.4" height="2.4"/>
	<rect x="30.4" y="213.2" class="st21" width="32.6" height="2.4"/>
	<rect x="140.6" y="206.9" class="st22" width="32.6" height="2.4"/>
	<rect x="66.6" y="213.2" class="st22" width="82.2" height="2.4"/>
	<rect x="24.1" y="194.3" class="st21" width="102.4" height="2.4"/>
	<rect x="146" y="219.5" class="st21" width="53.8" height="2.4"/>
	<rect x="82.1" y="219.5" class="st20" width="61.2" height="2.4"/>
	<rect x="171.5" y="213.2" class="st20" width="20.9" height="2.4"/>
	<rect x="19.4" y="213.2" class="st20" width="6.5" height="2.4"/>
	<rect x="13" y="206.9" class="st22" width="6.5" height="2.4"/>
	<rect x="24.1" y="206.9" class="st20" width="38.2" height="2.4"/>
	<rect x="30.4" y="188" class="st20" width="38.2" height="2.4"/>
	<rect x="131.8" y="181.7" class="st21" width="49.2" height="2.4"/>
	<rect x="71.7" y="188" class="st21" width="68.5" height="2.4"/>
	<rect x="65" y="181.7" class="st20" width="63.5" height="2.4"/>
	<rect x="30.4" y="181.7" class="st22" width="11.1" height="2.4"/>
	<rect x="73.2" y="200.6" class="st20" width="71.5" height="2.4"/>
	<rect x="147.3" y="200.6" class="st21" width="46.4" height="2.4"/>
	<rect x="66.2" y="206.9" class="st21" width="71.4" height="2.4"/>
	<rect x="13" y="200.6" class="st20" width="6.5" height="2.4"/>
	<rect x="13" y="194.3" class="st20" width="6.5" height="2.4"/>
	<rect x="19.4" y="188" class="st22" width="6.5" height="2.4"/>
	<rect x="19.4" y="181.7" class="st20" width="6.5" height="2.4"/>
	<rect x="13" y="176.4" class="st20" width="6.5" height="2.4"/>
	<rect x="24.1" y="176.4" class="st20" width="75.7" height="2.4"/>
	<rect x="19.4" y="170.1" class="st20" width="6.5" height="2.4"/>
	<rect x="30.4" y="170.1" class="st22" width="48.6" height="2.4"/>
	<rect x="24.1" y="151.1" class="st22" width="46.4" height="2.4"/>
	<rect x="30.4" y="163.8" class="st21" width="32.6" height="2.4"/>
	<rect x="66.6" y="163.8" class="st22" width="82.2" height="2.4"/>
	<rect x="24.1" y="144.8" class="st21" width="102.4" height="2.4"/>
	<rect x="146" y="170.1" class="st21" width="53.8" height="2.4"/>
	<rect x="82.1" y="170.1" class="st20" width="61.2" height="2.4"/>
	<rect x="171.5" y="163.8" class="st20" width="20.9" height="2.4"/>
	<rect x="19.4" y="163.8" class="st20" width="6.5" height="2.4"/>
	<rect x="13" y="157.5" class="st22" width="6.5" height="2.4"/>
	<rect x="24.1" y="157.5" class="st20" width="38.2" height="2.4"/>
	<rect x="73.2" y="151.1" class="st20" width="71.5" height="2.4"/>
	<rect x="66.2" y="157.5" class="st21" width="71.4" height="2.4"/>
	<rect x="13" y="151.1" class="st20" width="6.5" height="2.4"/>
	<g>
		<path class="st21" d="M17,234.4c0.2-0.2,0.2-0.6,0-0.8c-0.1-0.1-0.2-0.2-0.4-0.2c-0.2,0-0.3,0.1-0.4,0.2l-2.5,2.5c0,0,0,0,0,0.1
			c0,0,0,0,0,0c0,0,0,0,0,0.1c0,0,0,0,0,0c0,0,0,0,0,0.1c0,0,0,0,0,0c0,0,0,0,0,0.1c0,0,0,0,0,0.1c0,0,0,0,0,0c0,0,0,0,0,0.1
			c0,0,0,0,0,0c0,0,0,0,0,0.1c0,0,0,0,0,0c0,0,0,0.1,0,0.1c0,0,0,0,0,0c0,0,0,0,0.1,0.1l2.5,2.5c0.2,0.2,0.6,0.2,0.8,0
			c0.2-0.2,0.2-0.6,0-0.8l-2.1-2.1L17,234.4z"/>
		<path class="st21" d="M19.2,234.1l2.2,5.2c0.1,0.2,0.4,0.4,0.6,0.3c0.2-0.1,0.4-0.4,0.2-0.6l-2.2-5.2c-0.1-0.2-0.3-0.3-0.5-0.3
			c-0.1,0-0.1,0-0.2,0C19.2,233.6,19.1,233.9,19.2,234.1z"/>
		<path class="st21" d="M26.6,236.2C26.6,236.2,26.6,236.2,26.6,236.2C26.6,236.2,26.5,236.2,26.6,236.2l-2.6-2.6
			c-0.1-0.1-0.3-0.2-0.4-0.2c-0.2,0-0.3,0.1-0.4,0.2c-0.2,0.2-0.2,0.6,0,0.8l2.1,2.1l-2.1,2.1c-0.2,0.2-0.2,0.6,0,0.8
			c0.2,0.2,0.6,0.2,0.8,0l2.5-2.5c0,0,0,0,0.1-0.1c0,0,0,0,0,0c0,0,0-0.1,0-0.1c0,0,0,0,0,0c0,0,0,0,0-0.1c0,0,0,0,0,0
			c0,0,0,0,0-0.1c0,0,0,0,0,0c0,0,0,0,0,0c0,0,0,0,0-0.1c0,0,0,0,0,0c0,0,0-0.1,0-0.1C26.6,236.3,26.6,236.3,26.6,236.2
			C26.6,236.3,26.6,236.2,26.6,236.2z"/>
	</g>
</g>
<g>
	<path class="st23" d="M324.2,78.4l-4.3-52.3l51.1,0.1l-4.5,52.2l-20.9,6L324.2,78.4z"/>
	<path class="st24" d="M345.7,79.4V31.1l21.1,0.1L363,74.4L345.7,79.4z"/>
	<path class="st25" d="M361.5,37.3h-32.4l0.9,6.3h15.4l-15.1,6.5l0.9,6.1h22.3l-0.8,8.5l-7.5,1.5l-6.8-1.8l-0.5-4.8h-6.3l0.8,10.1
		l13.5,3.8l12.9-4.1l1.6-19.7h-13.7l14.9-6.2L361.5,37.3z"/>
</g>
<g>
	<path class="st26" d="M330.9,130.6c-3.1,0-5.7,0.8-7.9,1.8c-0.8-1.6-1.6-3.1-1.8-4.1c-0.2-1.2-0.4-2-0.2-3.4c0.2-1.5,1.1-3.6,1-3.7
		c0-0.2-0.2-0.9-1.9-0.9c-1.8,0-3.3,0.3-3.4,0.8c-0.2,0.5-0.5,1.5-0.7,2.6c-0.3,1.6-3.5,7.3-5.3,10.3c-0.6-1.2-1.1-2.2-1.2-3
		c-0.2-1.2-0.4-2-0.2-3.4c0.2-1.5,1.1-3.6,1-3.7c0-0.2-0.2-0.9-1.9-0.9c-1.8,0-3.3,0.3-3.4,0.8s-0.4,1.5-0.7,2.6
		c-0.4,1.1-4.6,10.6-5.7,13c-0.6,1.3-1.1,2.3-1.4,3l0,0c0,0,0,0-0.1,0.1c-0.3,0.6-0.5,0.9-0.5,0.9s0,0,0,0c-0.2,0.4-0.5,0.8-0.6,0.8
		c-0.1,0-0.3-1.1,0-2.7c0.6-3.3,2.2-8.4,2.1-8.6c0-0.1,0.3-1-1-1.5c-1.2-0.5-1.7,0.3-1.8,0.3c-0.1,0-0.2,0.3-0.2,0.3
		s1.4-5.8-2.7-5.8c-2.5,0-6,2.8-7.7,5.3c-1.1,0.6-3.4,1.9-5.9,3.2c-0.9,0.5-1.9,1.1-2.8,1.5c-0.1-0.1-0.1-0.1-0.2-0.2
		c-4.9-5.2-13.9-8.9-13.5-15.9c0.1-2.6,1-9.3,17.4-17.4c13.4-6.6,24.1-4.8,26-0.7c2.7,5.8-5.7,16.6-19.6,18.2
		c-5.3,0.6-8.1-1.5-8.8-2.2c-0.7-0.8-0.8-0.8-1.1-0.7c-0.4,0.2-0.2,1,0,1.4c0.4,1.1,2.1,3,5,3.9c2.6,0.8,8.8,1.3,16.3-1.6
		c8.4-3.3,15-12.3,13.1-19.9c-1.9-7.7-14.7-10.2-26.8-5.9c-7.2,2.6-15,6.6-20.6,11.8c-6.7,6.2-7.7,11.6-7.3,13.9
		c1.5,8,12.6,13.3,17.1,17.2c-0.2,0.1-0.4,0.2-0.6,0.3c-2.2,1.1-10.7,5.5-12.8,10.2c-2.4,5.3,0.4,9.1,2.2,9.6
		c5.7,1.6,11.6-1.3,14.7-6s2.8-10.8,1.3-13.6c0,0,0-0.1-0.1-0.1c0.6-0.3,1.2-0.7,1.7-1c1.1-0.7,2.3-1.3,3.2-1.8
		c-0.5,1.5-0.9,3.3-1.1,5.8c-0.2,3,1,6.9,2.6,8.4c0.7,0.7,1.6,0.7,2.1,0.7c1.9,0,2.7-1.6,3.7-3.4c1.1-2.3,2.2-4.9,2.2-4.9
		s-1.3,7.1,2.2,7.1c1.3,0,2.6-1.7,3.1-2.5v0c0,0,0,0,0.1-0.2c0.1-0.2,0.2-0.3,0.2-0.3v0c0.5-0.9,1.7-2.9,3.4-6.3
		c2.2-4.3,4.3-9.8,4.3-9.8s0.2,1.3,0.8,3.5c0.4,1.3,1.2,2.7,1.8,4.1c-0.5,0.7-0.8,1.1-0.8,1.1s0,0,0,0c-0.4,0.5-0.9,1.1-1.4,1.7
		c-1.7,2.1-3.8,4.5-4.1,5.1c-0.3,0.8-0.3,1.4,0.4,1.9c0.5,0.4,1.3,0.4,2.1,0.4c1.6-0.1,2.7-0.5,3.2-0.7c0.8-0.3,1.8-0.8,2.8-1.5
		c1.7-1.3,2.7-3.1,2.7-5.4c0-1.3-0.5-2.6-1-3.8c0.2-0.2,0.3-0.4,0.5-0.7c2.7-3.9,4.8-8.3,4.8-8.3s0.2,1.3,0.8,3.5
		c0.3,1.1,1,2.3,1.5,3.5c-2.5,2.1-4.1,4.5-4.7,6c-1,2.9-0.2,4.2,1.3,4.5c0.7,0.1,1.6-0.2,2.3-0.5c0.9-0.3,1.9-0.8,3-1.5
		c1.7-1.3,3.4-3,3.3-5.4c0-1.1-0.3-2.2-0.7-3.2c2.2-0.9,4.9-1.4,8.5-1c7.6,0.9,9.1,5.6,8.8,7.6c-0.3,2-1.9,3.1-2.4,3.4
		c-0.5,0.3-0.7,0.4-0.7,0.7c0.1,0.4,0.3,0.3,0.8,0.3c0.6-0.1,4-1.6,4.1-5.3C343.3,135.7,338.8,130.6,330.9,130.6L330.9,130.6z
		 M272.3,150.4c-2.5,2.7-6,3.8-7.6,2.9c-1.6-0.9-1-5,2.1-7.9c1.9-1.8,4.3-3.4,5.9-4.4c0.4-0.2,0.9-0.5,1.6-0.9
		c0.1-0.1,0.2-0.1,0.2-0.1l0,0c0.1-0.1,0.3-0.2,0.4-0.2C276,143.8,274.9,147.5,272.3,150.4L272.3,150.4z M290.6,137.9
		c-0.9,2.1-2.7,7.6-3.8,7.3c-1-0.3-1.5-4.4-0.2-8.5c0.7-2.1,2.1-4.5,3-5.5c1.4-1.5,2.9-2,3.3-1.4
		C293.3,130.6,291.2,136.6,290.6,137.9L290.6,137.9z M305.8,145.1c-0.4,0.2-0.7,0.3-0.9,0.2c-0.1-0.1,0.2-0.3,0.2-0.3s1.9-2,2.7-3
		c0.4-0.5,0.9-1.2,1.5-1.9v0.2C309.2,142.8,306.8,144.5,305.8,145.1L305.8,145.1z M317.5,142.5c-0.3-0.2-0.2-0.8,0.7-2.8
		c0.4-0.8,1.2-2.1,2.6-3.4c0.2,0.5,0.3,1,0.3,1.5C321,140.9,318.8,142,317.5,142.5L317.5,142.5z"/>
</g>
<path id="path2" class="st25" d="M261.1,195.5c0-1.5-1-3.1-3.8-3.2v-3.8c2.8-0.1,3.8-1.7,3.8-3.2c0-2.7-0.4-4.4-0.4-7.6
	c0-4.8,1.7-6.3,5.6-6.3h10.4v3.5h-8.4c-1.8,0-2.4,0.6-2.4,3s0.2,4.5,0.2,7.1c0,3.4-1.1,4.6-3.2,5.2v0.2c2.2,0.5,3.2,1.8,3.2,5.2
	c0,2.7-0.2,4.8-0.2,7.1s0.5,3.1,2.4,3.1h0.9v3.4h-2.8c-3.9,0-5.6-1.5-5.6-6.3C260.7,199.8,261.1,198.2,261.1,195.5z M270.3,171.7
	h6.5V196c0,1.4,0.6,1.8,1.2,1.8c0.2,0,0.4,0,0.8-0.1l0.8,4.8c-0.8,0.3-1.8,0.5-3.2,0.5c-4.4,0-5.9-2.9-5.9-7.3V171.7z M288.6,180.1
	c6.2,0,9.3,4.5,9.3,10.5c0,1.2-0.1,2.2-0.2,2.7h-13.3c0.5,3.4,2.8,4.8,5.7,4.8c1.6,0,3.1-0.4,4.8-1.4l2.2,3.9
	c-2.3,1.5-5.2,2.5-7.8,2.5c-6.3,0-11-4.2-11-11.5C278.1,184.6,283.3,180.1,288.6,180.1z M292.4,189.3c0-2.5-1.1-4.3-3.7-4.3
	c-2.1,0-3.8,1.4-4.2,4.3H292.4z M301.6,196c1.9,1.5,3.8,2.3,5.6,2.3c1.9,0,2.8-0.8,2.8-1.8c0-1.4-2.2-2.2-4.4-3
	c-2.6-1-5.7-2.8-5.7-6.4c0-4,3.4-6.8,8.3-6.8c3.4,0,5.8,1.4,7.7,2.8l-2.9,3.9c-1.6-1.2-3-1.8-4.6-1.8s-2.5,0.6-2.5,1.7
	c0,1.4,2.1,1.9,4.3,2.8c2.8,1,5.9,2.6,5.9,6.6s-3.1,7-9,7c-2.8,0-6.2-1.2-8.3-3L301.6,196z M319.2,196c1.9,1.5,3.8,2.3,5.6,2.3
	c1.9,0,2.8-0.8,2.8-1.8c0-1.4-2.2-2.2-4.4-3c-2.6-1-5.7-2.8-5.7-6.4c0-4,3.4-6.8,8.3-6.8c3.4,0,5.8,1.4,7.7,2.8l-2.9,3.9
	c-1.6-1.2-3-1.8-4.6-1.8s-2.5,0.6-2.5,1.7c0,1.4,2.1,1.9,4.2,2.8c2.8,1,5.9,2.6,5.9,6.6s-3.1,7-9,7c-2.8,0-6.2-1.2-8.3-3L319.2,196z
	 M335.2,205.7c1.8,0,2.4-0.6,2.4-3.1c0-2.4-0.2-4.5-0.2-7.1c0-3.4,1.1-4.6,3.2-5.2v-0.2c-2.2-0.5-3.2-1.8-3.2-5.2
	c0-2.6,0.2-4.9,0.2-7.1c0-2.4-0.4-3-2.4-3h-0.9v-3.4h2.8c3.9,0,5.6,1.5,5.6,6.3c0,3-0.4,4.8-0.4,7.6c0,1.5,1,3.1,3.8,3.2v3.8
	c-2.8,0.1-3.8,1.7-3.8,3.2c0,2.8,0.4,4.4,0.4,7.6c0,4.8-1.7,6.3-5.6,6.3h-2.8v-3.5L335.2,205.7z"/>
</svg>
