<?xml version="1.0" encoding="utf-8"?>
<!-- Generator: Adobe Illustrator 26.3.1, SVG Export Plug-In . SVG Version: 6.00 Build 0)  -->
<svg version="1.1" id="Layer_1" xmlns="http://www.w3.org/2000/svg" xmlns:xlink="http://www.w3.org/1999/xlink" x="0px" y="0px"
	 viewBox="0 0 183 120" style="enable-background:new 0 0 183 120;" xml:space="preserve">
<style type="text/css">
	.st0{clip-path:url(#SVGID_00000080207286866930975400000005246854949015712940_);}
	.st1{clip-path:url(#SVGID_00000000213096046251682820000009711455681482137021_);}
	.st2{fill:#FFFFFF;fill-opacity:0.2;}
	.st3{clip-path:url(#SVGID_00000023251096009635094760000003608853022370817427_);}
	.st4{fill:#FFFFFF;fill-opacity:0.4;}
	.st5{fill:#FFFFFF;}
	.st6{fill:#161614;}
</style>
<g>
	<defs>
		<rect id="SVGID_1_" x="16.3" y="12.6" width="59" height="92.8"/>
	</defs>
	<clipPath id="SVGID_00000055667359632798679930000002918161915888115594_">
		<use xlink:href="#SVGID_1_"  style="overflow:visible;"/>
	</clipPath>
	<g style="clip-path:url(#SVGID_00000055667359632798679930000002918161915888115594_);">
		<g>
			<defs>
				<rect id="SVGID_00000170971495263566217790000003206661594021915784_" x="16.3" y="66.1" width="59" height="39.3"/>
			</defs>
			<clipPath id="SVGID_00000141438133543936915560000002082510741032256445_">
				<use xlink:href="#SVGID_00000170971495263566217790000003206661594021915784_"  style="overflow:visible;"/>
			</clipPath>
			<g style="clip-path:url(#SVGID_00000141438133543936915560000002082510741032256445_);">
				<path class="st2" d="M17.4,66.1h56.8c0.6,0,1.1,0.5,1.1,1.1v0c0,0.6-0.5,1.1-1.1,1.1H17.4c-0.6,0-1.1-0.5-1.1-1.1v0
					C16.3,66.6,16.8,66.1,17.4,66.1z"/>
				<path class="st2" d="M17.4,72.7h29.5c0.6,0,1.1,0.5,1.1,1.1v0c0,0.6-0.5,1.1-1.1,1.1H17.4c-0.6,0-1.1-0.5-1.1-1.1v0
					C16.3,73.1,16.8,72.7,17.4,72.7z"/>
				<path class="st2" d="M17.4,79.2h40.4c0.6,0,1.1,0.5,1.1,1.1v0c0,0.6-0.5,1.1-1.1,1.1H17.4c-0.6,0-1.1-0.5-1.1-1.1v0
					C16.3,79.7,16.8,79.2,17.4,79.2z"/>
				<g>
					<defs>
						<rect id="SVGID_00000016050741205696316860000007288482964156658851_" x="16.3" y="85.8" width="45.3" height="19.7"/>
					</defs>
					<clipPath id="SVGID_00000044171813661887545790000000213256687021416325_">
						<use xlink:href="#SVGID_00000016050741205696316860000007288482964156658851_"  style="overflow:visible;"/>
					</clipPath>
					<g style="clip-path:url(#SVGID_00000044171813661887545790000000213256687021416325_);">
						<path class="st2" d="M17.4,85.8h29.5c0.6,0,1.1,0.5,1.1,1.1v0c0,0.6-0.5,1.1-1.1,1.1H17.4c-0.6,0-1.1-0.5-1.1-1.1v0
							C16.3,86.2,16.8,85.8,17.4,85.8z"/>
						<path class="st4" d="M18.5,101h41c1.2,0,2.2,1,2.2,2.2v0c0,1.2-1,2.2-2.2,2.2h-41c-1.2,0-2.2-1-2.2-2.2v0
							C16.3,102,17.3,101,18.5,101z"/>
					</g>
				</g>
			</g>
		</g>
	</g>
</g>
<g>
	<path class="st5" d="M25.9,31.9c0,1.1-0.2,2.1-0.7,2.9s-1.1,1.5-1.8,2c-0.6,0.4-1.3,0.6-2,0.8s-1.5,0.2-2.3,0.2h-3.6V26.1h3.6
		c0.8,0,1.6,0.1,2.3,0.2s1.4,0.4,2,0.8c0.8,0.5,1.4,1.1,1.8,2S25.9,30.8,25.9,31.9z M22.9,31.9c0-0.8-0.1-1.4-0.4-2s-0.7-1-1.2-1.3
		c-0.4-0.2-0.8-0.3-1.2-0.4s-1,0-1.6,0h-0.1v7.3h0.1c0.7,0,1.2,0,1.7,0s0.9-0.2,1.3-0.4c0.5-0.3,0.8-0.7,1.1-1.2
		S22.9,32.7,22.9,31.9z"/>
	<path class="st5" d="M27.6,37.7V26.1h7.9v2.2h-5v2h4.6v2.2h-4.6v2.9h5v2.2H27.6z"/>
	<path class="st5" d="M47.2,26.1l-4,11.6h-3l-4-11.6h3l2.5,7.9l2.5-7.9H47.2z"/>
	<path class="st5" d="M48.3,37.7V26.1h7.9v2.2h-5v2h4.6v2.2h-4.6v2.9h5v2.2H48.3z"/>
	<path class="st5" d="M65.9,37.7h-7.8V26.1H61v9.4h4.8V37.7z"/>
	<path class="st5" d="M77.9,31.9c0,1.9-0.5,3.4-1.5,4.4S74,38,72.2,38c-1.8,0-3.1-0.5-4.1-1.6s-1.5-2.6-1.5-4.4
		c0-1.9,0.5-3.3,1.5-4.4s2.4-1.6,4.1-1.6c1.8,0,3.1,0.5,4.1,1.6S77.9,30.1,77.9,31.9z M74.8,31.9c0-0.7-0.1-1.3-0.2-1.8
		s-0.3-0.9-0.6-1.2c-0.2-0.3-0.5-0.5-0.8-0.7s-0.6-0.2-1-0.2c-0.4,0-0.7,0.1-1,0.2s-0.6,0.4-0.8,0.7c-0.2,0.3-0.4,0.7-0.6,1.2
		s-0.2,1.1-0.2,1.8c0,0.7,0.1,1.3,0.2,1.8s0.3,0.9,0.6,1.2c0.2,0.3,0.5,0.6,0.9,0.7s0.6,0.2,1,0.2c0.3,0,0.7-0.1,1-0.2
		s0.6-0.4,0.8-0.7c0.2-0.3,0.4-0.7,0.6-1.2S74.8,32.7,74.8,31.9z"/>
	<path class="st5" d="M88.5,29.8c0,0.5-0.1,1.1-0.3,1.5s-0.4,0.9-0.7,1.2c-0.2,0.2-0.4,0.4-0.7,0.6s-0.5,0.3-0.8,0.4
		s-0.6,0.2-0.9,0.3s-0.7,0.1-1.1,0.1h-1.5v3.8h-2.9V26.1h4.5c0.7,0,1.3,0.1,1.7,0.2s0.9,0.3,1.3,0.6c0.4,0.3,0.8,0.7,1,1.2
		S88.5,29.1,88.5,29.8z M85.5,29.9c0-0.3-0.1-0.6-0.2-0.8s-0.3-0.4-0.6-0.5c-0.3-0.1-0.5-0.2-0.8-0.2s-0.6,0-1,0h-0.4v3.5h0.2
		c0.3,0,0.5,0,0.8,0s0.5,0,0.6-0.1c0.2,0,0.3-0.1,0.5-0.2s0.3-0.2,0.4-0.3c0.2-0.2,0.3-0.4,0.4-0.6S85.5,30.2,85.5,29.9z"/>
	<path class="st5" d="M90.1,37.7V26.1H98v2.2h-5v2h4.6v2.2H93v2.9h5v2.2H90.1z"/>
	<path class="st5" d="M110.7,37.7h-3.6l-3.2-4.3h-1v4.3h-2.9V26.1h4.7c0.6,0,1.2,0,1.7,0.1s0.9,0.2,1.3,0.5c0.4,0.3,0.7,0.6,1,1
		s0.4,0.9,0.4,1.6c0,0.9-0.2,1.6-0.6,2.2s-0.9,1-1.6,1.3L110.7,37.7z M106,29.7c0-0.3-0.1-0.5-0.2-0.8s-0.3-0.4-0.6-0.5
		c-0.2-0.1-0.4-0.1-0.6-0.1s-0.5,0-0.8,0h-1v3.1h0.8c0.4,0,0.8,0,1-0.1s0.5-0.2,0.7-0.3c0.2-0.1,0.3-0.3,0.4-0.5S106,30,106,29.7z"
		/>
</g>
<g>
	<path class="st5" d="M26.3,12.4l-2.5,9.8h-1.5l-2-8.1l-2,8.1H17l-2.5-9.8h1.3l2,8.2l2-8.2h1.3l2,8.2l2-8.2H26.3z"/>
	<path class="st5" d="M28.3,22.2v-9.8h6.1v1.2h-4.8v2.7h4.5v1.2h-4.5v3.6h4.8v1.2H28.3z"/>
	<path class="st5" d="M43.3,19.2c0,0.5-0.1,0.9-0.3,1.3s-0.4,0.7-0.7,0.9c-0.4,0.3-0.8,0.5-1.2,0.6c-0.4,0.1-1,0.2-1.6,0.2h-2.8
		v-9.8h2.6c0.7,0,1.2,0,1.6,0.1c0.3,0,0.7,0.2,1,0.3c0.4,0.2,0.6,0.4,0.8,0.7c0.2,0.3,0.2,0.7,0.2,1.1c0,0.5-0.1,0.9-0.4,1.2
		c-0.2,0.4-0.6,0.7-1,0.9v0.1c0.6,0.2,1,0.4,1.4,0.9C43.2,18.1,43.3,18.6,43.3,19.2z M41.5,14.8c0-0.2,0-0.4-0.1-0.6
		c-0.1-0.2-0.2-0.3-0.4-0.4c-0.2-0.1-0.4-0.2-0.7-0.2s-0.6,0-1.1,0H38v2.9h1.5c0.4,0,0.7,0,0.9-0.1c0.2,0,0.4-0.1,0.6-0.3
		c0.2-0.1,0.3-0.3,0.4-0.5S41.5,15.1,41.5,14.8z M42,19.3c0-0.4-0.1-0.7-0.2-0.9c-0.1-0.2-0.3-0.4-0.6-0.6c-0.2-0.1-0.4-0.2-0.7-0.2
		c-0.2,0-0.6,0-1,0H38v3.6H39c0.6,0,1,0,1.4-0.1s0.6-0.2,0.9-0.3c0.2-0.2,0.4-0.4,0.5-0.6C41.9,19.9,42,19.6,42,19.3z"/>
	<path class="st5" d="M59,22.2h-1.7L56,20.8c-0.4,0.6-0.9,1-1.4,1.2c-0.5,0.3-1,0.4-1.6,0.4c-0.9,0-1.6-0.3-2.2-0.8
		c-0.6-0.5-0.9-1.2-0.9-2.1c0-0.4,0.1-0.7,0.2-1s0.2-0.6,0.4-0.8c0.2-0.2,0.4-0.4,0.6-0.6c0.2-0.2,0.4-0.3,0.6-0.5
		c-0.4-0.3-0.8-0.6-1-0.9s-0.3-0.7-0.3-1.2c0-0.3,0.1-0.6,0.2-0.9c0.1-0.3,0.3-0.5,0.5-0.7c0.2-0.2,0.5-0.4,0.8-0.5
		c0.3-0.1,0.7-0.2,1.1-0.2c0.7,0,1.3,0.2,1.8,0.6s0.7,0.9,0.7,1.5c0,0.2,0,0.4-0.1,0.7c-0.1,0.2-0.2,0.5-0.3,0.7
		c-0.1,0.2-0.3,0.4-0.6,0.6c-0.2,0.2-0.5,0.4-0.9,0.5l2.3,2.4c0.1-0.4,0.1-0.8,0.1-1.2c0-0.4,0-1,0-1.7h1.3v0.6
		c0,0.4-0.1,0.9-0.2,1.4c-0.1,0.5-0.3,1-0.5,1.5L59,22.2z M55.4,20.2l-3-3.1c-0.1,0.1-0.2,0.2-0.3,0.3c-0.1,0.1-0.2,0.2-0.4,0.4
		c-0.1,0.2-0.2,0.4-0.3,0.6c-0.1,0.2-0.1,0.5-0.1,0.8c0,0.6,0.2,1.1,0.6,1.5c0.4,0.4,0.9,0.6,1.5,0.6c0.4,0,0.8-0.1,1.1-0.3
		C54.8,20.9,55.1,20.6,55.4,20.2z M53,16.2c0.2-0.1,0.4-0.2,0.6-0.3c0.2-0.1,0.3-0.3,0.4-0.5c0.1-0.2,0.1-0.3,0.2-0.5
		s0.1-0.4,0.1-0.6c0-0.4-0.1-0.8-0.4-1C53.6,13.2,53.3,13,53,13c-0.4,0-0.7,0.1-0.9,0.4s-0.3,0.6-0.3,1c0,0.2,0,0.3,0,0.5
		c0,0.1,0.1,0.3,0.2,0.4c0.1,0.1,0.2,0.3,0.4,0.4C52.5,15.9,52.7,16.1,53,16.2z"/>
	<path class="st5" d="M69.5,22.4c-0.7,0-1.3-0.1-1.9-0.3c-0.6-0.2-1.1-0.5-1.5-1c-0.4-0.4-0.7-1-0.9-1.6c-0.2-0.6-0.3-1.4-0.3-2.2
		c0-0.8,0.1-1.5,0.3-2.1c0.2-0.6,0.5-1.2,1-1.6c0.4-0.4,0.9-0.8,1.5-1s1.2-0.3,1.9-0.3c0.3,0,0.6,0,0.9,0.1s0.6,0.1,0.9,0.2
		c0.2,0.1,0.5,0.2,0.7,0.3c0.3,0.1,0.5,0.2,0.7,0.3v1.6h-0.1c-0.2-0.1-0.3-0.3-0.5-0.4c-0.2-0.1-0.4-0.3-0.7-0.4
		c-0.3-0.1-0.6-0.2-0.9-0.3s-0.7-0.1-1.1-0.1c-0.9,0-1.7,0.4-2.3,1.1c-0.6,0.7-0.9,1.7-0.9,2.8c0,0.7,0.1,1.2,0.2,1.7
		s0.4,0.9,0.7,1.3c0.3,0.3,0.6,0.6,1,0.8c0.4,0.2,0.8,0.3,1.3,0.3c0.4,0,0.7,0,1.1-0.1s0.7-0.1,0.9-0.2v-2.5h-2.3v-1.1h3.6v4.3
		c-0.2,0.1-0.4,0.2-0.7,0.3c-0.3,0.1-0.5,0.2-0.8,0.3c-0.3,0.1-0.6,0.2-0.9,0.2S69.9,22.4,69.5,22.4z"/>
	<path class="st5" d="M74.2,22.2l3.3-9.8h1.6l3.3,9.8H81l-0.9-2.7h-3.8l-0.9,2.7H74.2z M79.8,18.4l-1.5-4.6l-1.5,4.6H79.8z"/>
	<path class="st5" d="M92.5,22.2h-1.3v-8.5l-2.6,5.8h-0.8l-2.5-5.8v8.5h-1.2v-9.8h1.8l2.5,5.5l2.4-5.5h1.8V22.2z"/>
	<path class="st5" d="M95.3,22.2v-9.8h6.1v1.2h-4.8v2.7h4.5v1.2h-4.5v3.6h4.8v1.2H95.3z"/>
	<path class="st5" d="M106.4,22.4c-0.7,0-1.3-0.1-1.8-0.2c-0.5-0.1-1-0.3-1.4-0.5V20h0.1c0.4,0.4,0.9,0.7,1.5,0.9
		c0.5,0.2,1.1,0.3,1.6,0.3c0.7,0,1.3-0.2,1.6-0.5c0.4-0.3,0.6-0.7,0.6-1.2c0-0.4-0.1-0.7-0.3-1c-0.2-0.2-0.5-0.4-0.9-0.5
		c-0.3-0.1-0.6-0.2-0.8-0.2c-0.2-0.1-0.6-0.1-0.9-0.2c-0.3-0.1-0.6-0.2-0.9-0.3c-0.3-0.1-0.5-0.3-0.7-0.5c-0.2-0.2-0.4-0.5-0.5-0.8
		c-0.1-0.3-0.2-0.6-0.2-1c0-0.8,0.3-1.5,0.9-2c0.6-0.5,1.4-0.8,2.4-0.8c0.5,0,1.1,0.1,1.6,0.2c0.5,0.1,0.9,0.3,1.4,0.5v1.6h-0.1
		c-0.3-0.3-0.7-0.5-1.2-0.7c-0.5-0.2-1-0.3-1.5-0.3c-0.6,0-1.1,0.1-1.5,0.4c-0.4,0.3-0.6,0.7-0.6,1.1c0,0.4,0.1,0.7,0.3,1
		s0.5,0.4,1,0.5c0.3,0.1,0.6,0.2,1,0.3c0.4,0.1,0.7,0.2,1,0.3c0.7,0.2,1.2,0.5,1.5,0.9c0.3,0.4,0.5,0.9,0.5,1.5
		c0,0.4-0.1,0.8-0.2,1.1c-0.2,0.4-0.4,0.7-0.7,0.9c-0.3,0.3-0.7,0.5-1.1,0.7S107,22.4,106.4,22.4z"/>
</g>
<g>
	<path class="st6" d="M154.4,9.5c-9.3,0-16.8,7.5-16.8,16.8c0,7.4,4.8,13.7,11.5,15.9c0.8,0.2,1.1-0.4,1.1-0.8c0-0.4,0-1.7,0-3.1
		c-4.7,1-5.7-2-5.7-2c-0.8-1.9-1.9-2.5-1.9-2.5c-1.5-1,0.1-1,0.1-1c1.7,0.1,2.6,1.7,2.6,1.7c1.5,2.6,3.9,1.8,4.9,1.4
		c0.2-1.1,0.6-1.8,1.1-2.2c-3.7-0.4-7.6-1.9-7.6-8.3c0-1.8,0.7-3.3,1.7-4.5c-0.2-0.4-0.7-2.1,0.2-4.4c0,0,1.4-0.5,4.6,1.7
		c1.3-0.4,2.8-0.6,4.2-0.6c1.4,0,2.9,0.2,4.2,0.6c3.2-2.2,4.6-1.7,4.6-1.7c0.9,2.3,0.3,4,0.2,4.4c1.1,1.2,1.7,2.7,1.7,4.5
		c0,6.4-3.9,7.9-7.7,8.3c0.6,0.5,1.1,1.5,1.1,3.1c0,2.2,0,4.1,0,4.6c0,0.4,0.3,1,1.2,0.8c6.7-2.2,11.5-8.5,11.5-15.9
		C171.2,17,163.6,9.5,154.4,9.5z M143.9,33.4c0,0.1-0.2,0.1-0.3,0.1c-0.1-0.1-0.2-0.2-0.2-0.3c0-0.1,0.2-0.1,0.3-0.1
		C143.8,33.2,143.9,33.3,143.9,33.4z M144.7,34.1c-0.1,0.1-0.2,0-0.3-0.1c-0.1-0.1-0.1-0.3,0-0.3c0.1-0.1,0.2,0,0.3,0.1
		C144.8,33.9,144.8,34.1,144.7,34.1z M145.3,35.1c-0.1,0.1-0.3,0-0.4-0.1c-0.1-0.1-0.1-0.3,0-0.4c0.1-0.1,0.3,0,0.4,0.1
		C145.4,34.8,145.4,35,145.3,35.1z M146.2,36.2c-0.1,0.1-0.3,0.1-0.4-0.1c-0.1-0.1-0.2-0.3-0.1-0.4c0.1-0.1,0.3-0.1,0.4,0.1
		C146.3,35.9,146.3,36.1,146.2,36.2z M147.5,36.6c0,0.1-0.2,0.2-0.4,0.1c-0.2-0.1-0.3-0.2-0.3-0.3c0-0.1,0.2-0.2,0.4-0.1
		C147.4,36.3,147.5,36.4,147.5,36.6z M148.9,36.7c0,0.1-0.2,0.3-0.4,0.3c-0.2,0-0.4-0.1-0.4-0.2c0-0.1,0.2-0.3,0.4-0.3
		C148.7,36.5,148.9,36.6,148.9,36.7z M150.2,36.7c0,0.1-0.1,0.3-0.3,0.3c-0.2,0-0.4,0-0.4-0.2c0-0.1,0.1-0.3,0.3-0.3
		C150,36.4,150.2,36.5,150.2,36.7z"/>
</g>
</svg>
