<?xml version="1.0" encoding="utf-8"?>
<!-- Generator: Adobe Illustrator 26.3.1, SVG Export Plug-In . SVG Version: 6.00 Build 0)  -->
<svg version="1.1" id="Layer_1" xmlns="http://www.w3.org/2000/svg" xmlns:xlink="http://www.w3.org/1999/xlink" x="0px" y="0px"
	 viewBox="0 0 412 274" style="enable-background:new 0 0 412 274;" xml:space="preserve">
<style type="text/css">
	.st0{clip-path:url(#SVGID_00000173855341645227830020000007423348111145970306_);}
	.st1{fill-opacity:0.2;}
	.st2{fill:#4C038C;}
	.st3{fill:#4382FF;}
	.st4{fill-rule:evenodd;clip-rule:evenodd;fill:#3F4041;}
	.st5{fill:#151515;}
	.st6{fill-rule:evenodd;clip-rule:evenodd;fill:#434244;}
	.st7{clip-path:url(#SVGID_00000081632855299782184110000004794724370726634379_);}
	.st8{fill:#FFFFFF;fill-opacity:0.6;}
	.st9{fill:#FFFFFF;fill-opacity:0.3;}
	.st10{fill:#1A2E35;}
	.st11{fill:#ECECEC;}
	.st12{fill:#FFC800;}
	.st13{fill:#A8A8A8;}
	.st14{fill:#689F63;}
	.st15{fill-rule:evenodd;clip-rule:evenodd;fill:#FFFFFF;}
	.st16{fill-rule:evenodd;clip-rule:evenodd;fill:#689F63;}
	.st17{clip-path:url(#SVGID_00000054960818388002798200000010165228832320879280_);}
	.st18{fill:url(#SVGID_00000075126381549372504620000008581198043031927222_);}
	.st19{clip-path:url(#SVGID_00000051350306449772084580000003703669823586344883_);}
	.st20{fill:url(#SVGID_00000128445619369226615260000016209359536586975625_);}
	.st21{clip-path:url(#SVGID_00000103247278403287507020000001485636633553221248_);}
	.st22{fill:url(#SVGID_00000083085493005695868680000016713354969349159312_);}
	.st23{fill:url(#SVGID_00000065770372165592624440000012500268106013795995_);}
</style>
<g>
	<g>
		<defs>
			<path id="SVGID_1_" d="M20.5,13.7h371.1c3.8,0,6.8,3.1,6.8,6.8v232.8c0,3.8-3.1,6.8-6.8,6.8H20.5c-3.8,0-6.8-3.1-6.8-6.8V20.5
				C13.7,16.8,16.8,13.7,20.5,13.7z"/>
		</defs>
		<clipPath id="SVGID_00000120550606013687951180000011577459170763646634_">
			<use xlink:href="#SVGID_1_"  style="overflow:visible;"/>
		</clipPath>
		<g style="clip-path:url(#SVGID_00000120550606013687951180000011577459170763646634_);">
			<path class="st1" d="M20.5,13.7h371.1c3.8,0,6.8,3.1,6.8,6.8v232.8c0,3.8-3.1,6.8-6.8,6.8H20.5c-3.8,0-6.8-3.1-6.8-6.8V20.5
				C13.7,16.8,16.8,13.7,20.5,13.7z"/>
			<path class="st2" d="M20.5,13.7h150.6c3.8,0,6.9,3.1,6.9,6.8v232.8c0,3.8-3.1,6.9-6.9,6.9H20.5c-3.8,0-6.8-3.1-6.8-6.9V20.5
				C13.7,16.8,16.8,13.7,20.5,13.7z"/>
			<path class="st3" d="M158.6,37.6H34.7c-1.2,0-2.2-1-2.2-2.2v-5c0-1.2,1-2.2,2.2-2.2h123.9c1.2,0,2.2,1,2.2,2.2v5
				C160.8,36.6,159.8,37.6,158.6,37.6z"/>
			<path class="st4" d="M43.2,51c0-0.1,0.1-0.2,0.2-0.2h9.9c0.1,0,0.2,0.1,0.2,0.2c0,0.1-0.1,0.2-0.2,0.2h-9.9
				C43.3,51.2,43.2,51.1,43.2,51z"/>
			<path class="st4" d="M54.4,51c0-0.1,0.1-0.2,0.2-0.2h7.5c0.1,0,0.2,0.1,0.2,0.2c0,0.1-0.1,0.2-0.2,0.2h-7.5
				C54.5,51.2,54.4,51.1,54.4,51z"/>
			<path class="st4" d="M43.2,54.1c0-0.1,0.1-0.2,0.2-0.2h7.3c0.1,0,0.2,0.1,0.2,0.2s-0.1,0.2-0.2,0.2h-7.3
				C43.3,54.3,43.2,54.2,43.2,54.1z"/>
			<path class="st4" d="M52.1,54.1c0-0.1,0.1-0.2,0.2-0.2h18.2c0.1,0,0.2,0.1,0.2,0.2s-0.1,0.2-0.2,0.2H52.3
				C52.2,54.3,52.1,54.2,52.1,54.1z"/>
			<path class="st4" d="M43.2,47.9c0-0.1,0.1-0.2,0.2-0.2h4.1c0.1,0,0.2,0.1,0.2,0.2c0,0.1-0.1,0.2-0.2,0.2h-4.1
				C43.3,48.1,43.2,48,43.2,47.9z"/>
			<path class="st5" d="M158.6,128.7c0.1,0,0.2-0.1,0.2-0.2c0-0.1-0.1-0.2-0.2-0.2s-0.2,0.1-0.2,0.2
				C158.5,128.6,158.5,128.7,158.6,128.7z"/>
			<path class="st5" d="M159.8,131.9c0.1,0,0.2-0.1,0.2-0.2c0-0.1-0.1-0.2-0.2-0.2c-0.1,0-0.2,0.1-0.2,0.2
				C159.6,131.8,159.7,131.9,159.8,131.9z"/>
			<path class="st5" d="M158.6,130.6c0.1,0,0.2-0.1,0.2-0.2c0-0.1-0.1-0.2-0.2-0.2s-0.2,0.1-0.2,0.2
				C158.5,130.5,158.5,130.6,158.6,130.6z"/>
			<path class="st5" d="M158.3,136c0.1,0,0.2-0.1,0.2-0.2c0-0.1-0.1-0.2-0.2-0.2s-0.2,0.1-0.2,0.2C158.1,135.9,158.2,136,158.3,136z
				"/>
			<path class="st5" d="M159.5,134.9c0.2,0,0.3-0.1,0.3-0.3c0-0.2-0.1-0.3-0.3-0.3c-0.2,0-0.3,0.1-0.3,0.3
				C159.3,134.8,159.4,134.9,159.5,134.9z"/>
			<path class="st5" d="M158.8,132.9c0.2,0,0.3-0.1,0.3-0.3c0-0.2-0.1-0.3-0.3-0.3c-0.2,0-0.3,0.1-0.3,0.3
				C158.5,132.8,158.7,132.9,158.8,132.9z"/>
			<path class="st5" d="M156.1,136.5c0.2,0,0.3-0.1,0.3-0.3c0-0.2-0.1-0.3-0.3-0.3c-0.2,0-0.3,0.1-0.3,0.3
				C155.8,136.4,156,136.5,156.1,136.5z"/>
			<path class="st5" d="M158,134.7c0.2,0,0.3-0.1,0.3-0.3c0-0.2-0.1-0.3-0.3-0.3c-0.2,0-0.3,0.1-0.3,0.3
				C157.7,134.5,157.8,134.7,158,134.7z"/>
			<path class="st6" d="M157.3,74.9c0.1,0,0.2,0.1,0.2,0.2v10.4c0,0.1-0.1,0.2-0.2,0.2s-0.2-0.1-0.2-0.2V75.1
				C157.1,74.9,157.2,74.9,157.3,74.9z"/>
			<path class="st6" d="M159.9,74.9c0.1,0,0.2,0.1,0.2,0.2v16.2c0,0.1-0.1,0.2-0.2,0.2c-0.1,0-0.2-0.1-0.2-0.2V75.1
				C159.7,74.9,159.7,74.9,159.9,74.9z"/>
			<path class="st6" d="M162.4,74.9c0.1,0,0.2,0.1,0.2,0.2v6.3c0,0.1-0.1,0.2-0.2,0.2s-0.2-0.1-0.2-0.2v-6.3
				C162.2,74.9,162.3,74.9,162.4,74.9z"/>
			<path class="st4" d="M106.6,51.4c0.1-0.1,0.2-0.1,0.3,0l2.3,1.7c0.1,0.1,0.1,0.2,0,0.3c-0.1,0.1-0.2,0.1-0.3,0l-2.3-1.7
				C106.5,51.6,106.5,51.5,106.6,51.4z"/>
			<path class="st4" d="M108.8,51.1c0.1,0.1,0.1,0.2,0,0.3l-1.7,2.3c-0.1,0.1-0.2,0.1-0.3,0c-0.1-0.1-0.1-0.2,0-0.3l1.7-2.3
				C108.6,51.1,108.7,51.1,108.8,51.1z"/>
			<g>
				<defs>
					<rect id="SVGID_00000147919237910918605170000006947910851934485924_" x="41.6" y="203.1" width="110" height="70.9"/>
				</defs>
				<clipPath id="SVGID_00000125591840666979517150000010289069012342264253_">
					<use xlink:href="#SVGID_00000147919237910918605170000006947910851934485924_"  style="overflow:visible;"/>
				</clipPath>
				<g style="clip-path:url(#SVGID_00000125591840666979517150000010289069012342264253_);">
					<path class="st8" d="M44.1,203.1h105c1.4,0,2.5,1.1,2.5,2.5l0,0c0,1.4-1.1,2.5-2.5,2.5h-105c-1.4,0-2.5-1.1-2.5-2.5l0,0
						C41.6,204.2,42.8,203.1,44.1,203.1z"/>
					<path class="st8" d="M68.1,220.1h57c1.4,0,2.5,1.1,2.5,2.5l0,0c0,1.4-1.1,2.5-2.5,2.5h-57c-1.4,0-2.5-1.1-2.5-2.5l0,0
						C65.6,221.2,66.8,220.1,68.1,220.1z"/>
					<path class="st9" d="M46.6,237.1h100c0.8,0,1.5,0.7,1.5,1.5l0,0c0,0.8-0.7,1.5-1.5,1.5h-100c-0.8,0-1.5-0.7-1.5-1.5l0,0
						C45.1,237.8,45.8,237.1,46.6,237.1z"/>
				</g>
			</g>
		</g>
	</g>
</g>
<g>
	<g>
		<g>
			<rect x="180.4" y="15.2" class="st10" width="217.4" height="245.6"/>
		</g>
	</g>
	<g>
		<rect x="193" y="38.9" class="st11" width="6.5" height="2.5"/>
		<rect x="204.1" y="38.9" class="st11" width="104.3" height="2.5"/>
		<rect x="312.4" y="38.9" class="st12" width="12.3" height="2.5"/>
		<rect x="332" y="72.6" class="st11" width="12.3" height="2.5"/>
		<rect x="327.3" y="38.9" class="st13" width="41.4" height="2.5"/>
		<rect x="199.4" y="45.6" class="st11" width="6.5" height="2.5"/>
		<rect x="210.4" y="45.6" class="st13" width="48.6" height="2.5"/>
		<rect x="310.7" y="72.6" class="st13" width="18.4" height="2.5"/>
		<rect x="204.1" y="65.9" class="st13" width="46.4" height="2.5"/>
		<rect x="210.4" y="52.4" class="st12" width="32.6" height="2.5"/>
		<rect x="320.6" y="59.1" class="st13" width="32.6" height="2.5"/>
		<rect x="246.6" y="52.4" class="st13" width="82.2" height="2.5"/>
		<rect x="204.1" y="72.6" class="st12" width="102.4" height="2.5"/>
		<rect x="326" y="45.6" class="st12" width="53.8" height="2.5"/>
		<rect x="262.1" y="45.6" class="st11" width="61.2" height="2.5"/>
		<rect x="351.5" y="52.4" class="st11" width="20.9" height="2.5"/>
		<rect x="199.4" y="52.4" class="st11" width="6.5" height="2.5"/>
		<rect x="193" y="59.1" class="st13" width="6.5" height="2.5"/>
		<rect x="204.1" y="59.1" class="st11" width="38.2" height="2.5"/>
		<rect x="210.4" y="79.4" class="st11" width="38.2" height="2.5"/>
		<rect x="311.8" y="86.1" class="st12" width="49.2" height="2.5"/>
		<rect x="251.7" y="79.4" class="st12" width="68.5" height="2.5"/>
		<rect x="245" y="86.1" class="st11" width="63.5" height="2.5"/>
		<rect x="210.4" y="86.1" class="st13" width="11.1" height="2.5"/>
		<rect x="253.2" y="65.9" class="st11" width="71.5" height="2.5"/>
		<rect x="327.3" y="65.9" class="st12" width="46.4" height="2.5"/>
		<rect x="246.2" y="59.1" class="st12" width="71.4" height="2.5"/>
		<rect x="193" y="65.9" class="st11" width="6.5" height="2.5"/>
		<rect x="193" y="72.6" class="st11" width="6.5" height="2.5"/>
		<rect x="199.4" y="79.4" class="st13" width="6.5" height="2.5"/>
		<rect x="199.4" y="86.1" class="st11" width="6.5" height="2.5"/>
		<rect x="193" y="91.8" class="st11" width="6.5" height="2.5"/>
		<rect x="204.1" y="91.8" class="st11" width="75.7" height="2.5"/>
		<rect x="199.4" y="98.5" class="st11" width="6.5" height="2.5"/>
		<rect x="210.4" y="98.5" class="st13" width="48.6" height="2.5"/>
		<rect x="204.1" y="118.8" class="st13" width="46.4" height="2.5"/>
		<rect x="210.4" y="105.3" class="st12" width="32.6" height="2.5"/>
		<rect x="246.6" y="105.3" class="st13" width="82.2" height="2.5"/>
		<rect x="204.1" y="125.5" class="st12" width="102.4" height="2.5"/>
		<rect x="326" y="98.5" class="st12" width="53.8" height="2.5"/>
		<rect x="262.1" y="98.5" class="st11" width="61.2" height="2.5"/>
		<rect x="351.5" y="105.3" class="st11" width="20.9" height="2.5"/>
		<rect x="199.4" y="105.3" class="st11" width="6.5" height="2.5"/>
		<rect x="193" y="112" class="st13" width="6.5" height="2.5"/>
		<rect x="204.1" y="112" class="st11" width="38.2" height="2.5"/>
		<rect x="253.2" y="118.8" class="st11" width="71.5" height="2.5"/>
		<rect x="246.2" y="112" class="st12" width="71.4" height="2.5"/>
		<rect x="193" y="118.8" class="st11" width="6.5" height="2.5"/>
		<g>
			<path class="st12" d="M197,32.2c0.2,0.2,0.2,0.6,0,0.9c-0.1,0.1-0.2,0.2-0.4,0.2c-0.2,0-0.3-0.1-0.4-0.2l-2.5-2.7c0,0,0,0,0-0.1
				c0,0,0,0,0,0c0,0,0,0,0-0.1c0,0,0,0,0,0c0,0,0,0,0-0.1c0,0,0,0,0,0c0,0,0,0,0-0.1c0,0,0,0,0-0.1c0,0,0,0,0,0c0,0,0,0,0-0.1
				c0,0,0,0,0,0c0,0,0,0,0-0.1c0,0,0,0,0,0c0,0,0-0.1,0-0.1c0,0,0,0,0,0c0,0,0,0,0.1-0.1l2.5-2.7c0.2-0.2,0.6-0.2,0.8,0
				c0.2,0.2,0.2,0.6,0,0.9l-2.1,2.3L197,32.2z"/>
			<path class="st12" d="M199.2,32.5l2.2-5.5c0.1-0.3,0.4-0.4,0.6-0.3c0.2,0.1,0.4,0.4,0.2,0.7l-2.2,5.5c-0.1,0.2-0.3,0.3-0.5,0.3
				c-0.1,0-0.1,0-0.2,0C199.2,33.1,199.1,32.8,199.2,32.5z"/>
			<path class="st12" d="M206.6,30.3C206.6,30.3,206.6,30.3,206.6,30.3C206.6,30.3,206.5,30.4,206.6,30.3l-2.6,2.8
				c-0.1,0.1-0.3,0.2-0.4,0.2c-0.2,0-0.3-0.1-0.4-0.2c-0.2-0.2-0.2-0.6,0-0.9l2.1-2.3l-2.1-2.3c-0.2-0.2-0.2-0.6,0-0.9
				c0.2-0.2,0.6-0.2,0.8,0l2.5,2.7c0,0,0,0,0.1,0.1c0,0,0,0,0,0c0,0,0,0.1,0,0.1c0,0,0,0,0,0c0,0,0,0,0,0.1c0,0,0,0,0,0
				c0,0,0,0,0,0.1c0,0,0,0,0,0c0,0,0,0,0,0c0,0,0,0,0,0.1c0,0,0,0,0,0c0,0,0,0.1,0,0.1C206.6,30.2,206.6,30.2,206.6,30.3
				C206.6,30.2,206.6,30.3,206.6,30.3z"/>
		</g>
	</g>
	<g>
		<rect x="193" y="157.3" class="st11" width="6.5" height="2.5"/>
		<rect x="204.1" y="157.3" class="st11" width="104.3" height="2.5"/>
		<rect x="312.4" y="157.3" class="st12" width="12.3" height="2.5"/>
		<rect x="332" y="191.1" class="st11" width="12.3" height="2.5"/>
		<rect x="327.3" y="157.3" class="st13" width="41.4" height="2.5"/>
		<rect x="199.4" y="164.1" class="st11" width="6.5" height="2.5"/>
		<rect x="210.4" y="164.1" class="st13" width="48.6" height="2.5"/>
		<rect x="310.7" y="191.1" class="st13" width="18.4" height="2.5"/>
		<rect x="204.1" y="184.3" class="st13" width="46.4" height="2.5"/>
		<rect x="210.4" y="170.8" class="st12" width="32.6" height="2.5"/>
		<rect x="320.6" y="177.6" class="st13" width="32.6" height="2.5"/>
		<rect x="246.6" y="170.8" class="st13" width="82.2" height="2.5"/>
		<rect x="204.1" y="191.1" class="st12" width="102.4" height="2.5"/>
		<rect x="326" y="164.1" class="st12" width="53.8" height="2.5"/>
		<rect x="262.1" y="164.1" class="st11" width="61.2" height="2.5"/>
		<rect x="351.5" y="170.8" class="st11" width="20.9" height="2.5"/>
		<rect x="199.4" y="170.8" class="st11" width="6.5" height="2.5"/>
		<rect x="193" y="177.6" class="st13" width="6.5" height="2.5"/>
		<rect x="204.1" y="177.6" class="st11" width="38.2" height="2.5"/>
		<rect x="210.4" y="197.8" class="st11" width="38.2" height="2.5"/>
		<rect x="311.8" y="204.6" class="st12" width="49.2" height="2.5"/>
		<rect x="251.7" y="197.8" class="st12" width="68.5" height="2.5"/>
		<rect x="245" y="204.6" class="st11" width="63.5" height="2.5"/>
		<rect x="210.4" y="204.6" class="st13" width="11.1" height="2.5"/>
		<rect x="253.2" y="184.3" class="st11" width="71.5" height="2.5"/>
		<rect x="327.3" y="184.3" class="st12" width="46.4" height="2.5"/>
		<rect x="246.2" y="177.6" class="st12" width="71.4" height="2.5"/>
		<rect x="193" y="184.3" class="st11" width="6.5" height="2.5"/>
		<rect x="193" y="191.1" class="st11" width="6.5" height="2.5"/>
		<rect x="199.4" y="197.8" class="st13" width="6.5" height="2.5"/>
		<rect x="199.4" y="204.6" class="st11" width="6.5" height="2.5"/>
		<rect x="193" y="210.2" class="st11" width="6.5" height="2.5"/>
		<rect x="204.1" y="210.2" class="st11" width="75.7" height="2.5"/>
		<rect x="199.4" y="217" class="st11" width="6.5" height="2.5"/>
		<rect x="210.4" y="217" class="st13" width="48.6" height="2.5"/>
		<rect x="204.1" y="237.2" class="st13" width="46.4" height="2.5"/>
		<rect x="210.4" y="223.7" class="st12" width="32.6" height="2.5"/>
		<rect x="246.6" y="223.7" class="st13" width="82.2" height="2.5"/>
		<rect x="204.1" y="244" class="st12" width="102.4" height="2.5"/>
		<rect x="326" y="217" class="st12" width="53.8" height="2.5"/>
		<rect x="262.1" y="217" class="st11" width="61.2" height="2.5"/>
		<rect x="351.5" y="223.7" class="st11" width="20.9" height="2.5"/>
		<rect x="199.4" y="223.7" class="st11" width="6.5" height="2.5"/>
		<rect x="193" y="230.5" class="st13" width="6.5" height="2.5"/>
		<rect x="204.1" y="230.5" class="st11" width="38.2" height="2.5"/>
		<rect x="253.2" y="237.2" class="st11" width="71.5" height="2.5"/>
		<rect x="246.2" y="230.5" class="st12" width="71.4" height="2.5"/>
		<rect x="193" y="237.2" class="st11" width="6.5" height="2.5"/>
	</g>
</g>
<g>
	<path class="st14" d="M94.8,194.1c-0.3,0-0.6-0.1-0.9-0.2l-2.8-1.7c-0.4-0.2-0.2-0.3-0.1-0.4c0.6-0.2,0.7-0.2,1.3-0.6
		c0.1,0,0.1,0,0.2,0l2.2,1.3c0.1,0,0.2,0,0.3,0l8.5-4.9c0.1,0,0.1-0.1,0.1-0.2v-9.8c0-0.1-0.1-0.2-0.1-0.2l-8.5-4.9
		c-0.1,0-0.2,0-0.3,0l-8.5,4.9c-0.1,0-0.1,0.1-0.1,0.2v9.8c0,0.1,0.1,0.2,0.1,0.2l2.3,1.3c1.3,0.6,2-0.1,2-0.9v-9.7
		c0-0.1,0.1-0.2,0.2-0.2h1.1c0.1,0,0.2,0.1,0.2,0.2v9.7c0,1.7-0.9,2.7-2.5,2.7c-0.5,0-0.9,0-2-0.5l-2.2-1.3
		c-0.6-0.3-0.9-0.9-0.9-1.6v-9.8c0-0.6,0.3-1.2,0.9-1.5l8.5-4.9c0.5-0.3,1.3-0.3,1.8,0l8.5,4.9c0.5,0.3,0.9,0.9,0.9,1.5v9.8
		c0,0.6-0.3,1.2-0.9,1.5l-8.5,4.9C95.4,194,95.1,194.1,94.8,194.1"/>
	<path class="st14" d="M97.4,187.4c-3.7,0-4.5-1.7-4.5-3.1c0-0.1,0.1-0.2,0.2-0.2h1.1c0.1,0,0.2,0.1,0.2,0.2
		c0.2,1.1,0.7,1.7,2.9,1.7c1.8,0,2.6-0.4,2.6-1.4c0-0.5-0.2-1-3-1.2c-2.3-0.2-3.8-0.7-3.8-2.6c0-1.7,1.4-2.7,3.9-2.7
		c2.7,0,4.1,0.9,4.2,3c0,0.1,0,0.1-0.1,0.2c0,0-0.1,0.1-0.2,0.1H100c-0.1,0-0.2-0.1-0.2-0.2c-0.3-1.2-0.9-1.6-2.7-1.6
		c-2,0-2.2,0.7-2.2,1.2c0,0.6,0.3,0.8,2.9,1.1c2.6,0.3,3.9,0.8,3.9,2.7C101.6,186.3,100.1,187.4,97.4,187.4 M107.8,177h0.3
		c0.2,0,0.3-0.2,0.3-0.3c0-0.3-0.2-0.3-0.3-0.3h-0.3L107.8,177z M107.4,176.2h0.6c0.2,0,0.6,0,0.6,0.5c0,0.3-0.2,0.4-0.3,0.5
		c0.3,0,0.3,0.2,0.3,0.4c0,0.1,0,0.4,0.1,0.5h-0.4c0-0.1-0.1-0.6-0.1-0.6c0-0.1-0.1-0.2-0.2-0.2h-0.3v0.7h-0.4V176.2z M106.7,177.1
		c0,0.8,0.6,1.4,1.4,1.4c0.8,0,1.4-0.6,1.4-1.4c0-0.8-0.6-1.4-1.4-1.4C107.3,175.7,106.7,176.3,106.7,177.1 M109.7,177.1
		c0,0.9-0.7,1.6-1.6,1.6c-0.9,0-1.6-0.7-1.6-1.6c0-0.9,0.8-1.6,1.6-1.6C108.9,175.5,109.7,176.2,109.7,177.1"/>
	<path class="st15" d="M68.5,155.8c0-0.4-0.2-0.8-0.5-0.9l-9-5.2c-0.2-0.1-0.3-0.1-0.5-0.1h-0.1c-0.2,0-0.3,0.1-0.5,0.1l-9,5.2
		c-0.3,0.2-0.5,0.6-0.5,0.9l0,14c0,0.2,0.1,0.4,0.3,0.5c0.2,0.1,0.4,0.1,0.5,0l5.4-3.1c0.3-0.2,0.5-0.6,0.5-0.9v-6.5
		c0-0.4,0.2-0.7,0.5-0.9l2.3-1.3c0.2-0.1,0.4-0.1,0.5-0.1c0.2,0,0.4,0,0.5,0.1l2.3,1.3c0.3,0.2,0.5,0.6,0.5,0.9v6.5
		c0,0.4,0.2,0.7,0.5,0.9l5.4,3.1c0.2,0.1,0.4,0.1,0.5,0c0.2-0.1,0.3-0.3,0.3-0.5L68.5,155.8z M111,163c0,0.1-0.1,0.2-0.1,0.2
		l-3.1,1.8c-0.1,0-0.2,0-0.3,0l-3.1-1.8c-0.1,0-0.1-0.1-0.1-0.2v-3.6c0-0.1,0.1-0.2,0.1-0.2l3.1-1.8c0.1,0,0.2,0,0.3,0l3.1,1.8
		c0.1,0,0.1,0.1,0.1,0.2L111,163z M111.8,136.6c-0.2-0.1-0.4-0.1-0.5,0c-0.2,0.1-0.3,0.3-0.3,0.5v13.8c0,0.1-0.1,0.3-0.2,0.3
		c-0.1,0.1-0.3,0.1-0.4,0l-2.3-1.3c-0.3-0.2-0.7-0.2-1.1,0l-9,5.2c-0.3,0.2-0.5,0.6-0.5,0.9v10.4c0,0.4,0.2,0.7,0.5,0.9l9,5.2
		c0.3,0.2,0.8,0.2,1.1,0l9-5.2c0.3-0.2,0.5-0.6,0.5-0.9v-25.9c0-0.4-0.2-0.8-0.6-1L111.8,136.6z M141.8,159.4
		c0.3-0.2,0.5-0.6,0.5-0.9v-2.5c0-0.4-0.2-0.7-0.5-0.9l-9-5.2c-0.3-0.2-0.8-0.2-1.1,0l-9,5.2c-0.3,0.2-0.5,0.6-0.5,0.9v10.4
		c0,0.4,0.2,0.8,0.5,0.9l9,5.1c0.3,0.2,0.7,0.2,1.1,0l5.4-3c0.2-0.1,0.3-0.3,0.3-0.5s-0.1-0.4-0.3-0.5l-9.1-5.2
		c-0.2-0.1-0.3-0.3-0.3-0.5v-3.3c0-0.2,0.1-0.4,0.3-0.5l2.8-1.6c0.2-0.1,0.4-0.1,0.5,0l2.8,1.6c0.2,0.1,0.3,0.3,0.3,0.5v2.6
		c0,0.2,0.1,0.4,0.3,0.5c0.2,0.1,0.4,0.1,0.5,0L141.8,159.4z"/>
	<path class="st16" d="M132.2,158.9c0.1,0,0.1,0,0.2,0l1.7,1c0.1,0,0.1,0.1,0.1,0.2v2c0,0.1,0,0.1-0.1,0.2l-1.7,1
		c-0.1,0-0.1,0-0.2,0l-1.7-1c-0.1,0-0.1-0.1-0.1-0.2v-2c0-0.1,0-0.1,0.1-0.2L132.2,158.9z"/>
	<g>
		<defs>
			<path id="SVGID_00000138546393450421696440000013866915199997978292_" d="M82.5,149.8l-9,5.2c-0.3,0.2-0.5,0.6-0.5,0.9v10.3
				c0,0.4,0.2,0.7,0.5,0.9l9,5.2c0.3,0.2,0.7,0.2,1.1,0l9-5.2c0.3-0.2,0.5-0.6,0.5-0.9v-10.3c0-0.4-0.2-0.7-0.5-0.9l-9-5.2
				c-0.2-0.1-0.4-0.1-0.5-0.1C82.8,149.7,82.6,149.7,82.5,149.8"/>
		</defs>
		<clipPath id="SVGID_00000009566091947969933520000006026231164354500264_">
			<use xlink:href="#SVGID_00000138546393450421696440000013866915199997978292_"  style="overflow:visible;"/>
		</clipPath>
		<g transform="translate(-78.306 -164.016)" style="clip-path:url(#SVGID_00000009566091947969933520000006026231164354500264_);">
			
				<linearGradient id="SVGID_00000183229639921062088450000013483796050543923336_" gradientUnits="userSpaceOnUse" x1="-18.1713" y1="698.7498" x2="-17.9162" y2="698.7498" gradientTransform="matrix(-50.7531 103.536 103.536 50.7531 -73100.2031 -33270.4219)">
				<stop  offset="0.3" style="stop-color:#3E863D"/>
				<stop  offset="0.5" style="stop-color:#55934F"/>
				<stop  offset="0.8" style="stop-color:#5AAD45"/>
			</linearGradient>
			<path style="fill:url(#SVGID_00000183229639921062088450000013483796050543923336_);" d="M180.4,318.1l-25.2-12.4l-12.9,26.4
				l25.2,12.4L180.4,318.1z"/>
		</g>
	</g>
	<g>
		<defs>
			<path id="SVGID_00000068646821315625202830000016292903261075447182_" d="M73.2,166.9c0.1,0.1,0.2,0.2,0.3,0.3l7.7,4.4l1.3,0.7
				c0.2,0.1,0.4,0.2,0.6,0.1c0.1,0,0.1,0,0.2,0l9.4-17.3c-0.1-0.1-0.2-0.1-0.3-0.2l-5.9-3.4l-3.1-1.8c-0.1-0.1-0.2-0.1-0.3-0.1
				L73.2,166.9z"/>
		</defs>
		<clipPath id="SVGID_00000150082176024919318890000006473617580973558923_">
			<use xlink:href="#SVGID_00000068646821315625202830000016292903261075447182_"  style="overflow:visible;"/>
		</clipPath>
		<g transform="translate(-78.306 -164.016)" style="clip-path:url(#SVGID_00000150082176024919318890000006473617580973558923_);">
			
				<linearGradient id="SVGID_00000134962167573833208170000010843096519484915096_" gradientUnits="userSpaceOnUse" x1="-21.7638" y1="696.9386" x2="-21.5982" y2="696.9386" gradientTransform="matrix(142.4074 -105.2221 -105.2221 -142.4074 76582.1797 97293.0078)">
				<stop  offset="0.57" style="stop-color:#3E863D"/>
				<stop  offset="0.72" style="stop-color:#619857"/>
				<stop  offset="1" style="stop-color:#76AC64"/>
			</linearGradient>
			<path style="fill:url(#SVGID_00000134962167573833208170000010843096519484915096_);" d="M140.6,321.8l17.8,24.1l23.6-17.4
				l-17.8-24.1L140.6,321.8z"/>
		</g>
	</g>
	<g>
		<defs>
			<path id="SVGID_00000157302119987676163820000009350441560544447929_" d="M82.9,149.7c-0.2,0-0.3,0.1-0.4,0.1l-8.9,5.2l9.6,17.5
				c0.1,0,0.3-0.1,0.4-0.1l9-5.2c0.3-0.2,0.5-0.4,0.5-0.7l-9.8-16.8C83.2,149.7,83.1,149.7,82.9,149.7C83,149.7,83,149.7,82.9,149.7
				"/>
		</defs>
		<clipPath id="SVGID_00000043451782121235912670000005303694516530551965_">
			<use xlink:href="#SVGID_00000157302119987676163820000009350441560544447929_"  style="overflow:visible;"/>
		</clipPath>
		<g transform="translate(-78.306 -164.016)" style="clip-path:url(#SVGID_00000043451782121235912670000005303694516530551965_);">
			
				<linearGradient id="SVGID_00000050649655139999675030000014658302326989806774_" gradientUnits="userSpaceOnUse" x1="-20.5415" y1="695.9764" x2="-20.3914" y2="695.9764" gradientTransform="matrix(129.8891 0 0 -129.8891 2819.9729 90724.875)">
				<stop  offset="0.16" style="stop-color:#6BBF47"/>
				<stop  offset="0.38" style="stop-color:#79B461"/>
				<stop  offset="0.47" style="stop-color:#75AC64"/>
				<stop  offset="0.7" style="stop-color:#659E5A"/>
				<stop  offset="0.9" style="stop-color:#3E863D"/>
			</linearGradient>
			<path style="fill:url(#SVGID_00000050649655139999675030000014658302326989806774_);" d="M151.9,313.7v22.8h19.5v-22.8H151.9z"/>
		</g>
	</g>
</g>
<linearGradient id="SVGID_00000027596946019391414690000015553996962395406747_" gradientUnits="userSpaceOnUse" x1="73.5248" y1="161.0271" x2="92.5278" y2="161.0271">
	<stop  offset="0.16" style="stop-color:#6BBF47"/>
	<stop  offset="0.38" style="stop-color:#79B461"/>
	<stop  offset="0.47" style="stop-color:#75AC64"/>
	<stop  offset="0.7" style="stop-color:#659E5A"/>
	<stop  offset="0.9" style="stop-color:#3E863D"/>
</linearGradient>
<polygon style="fill:url(#SVGID_00000027596946019391414690000015553996962395406747_);" points="82.5,172.4 92.5,167.2 92.5,155 
	83,149.7 73.5,155 73.5,167.2 "/>
</svg>
