<?xml version="1.0" encoding="utf-8"?>
<!-- Generator: Adobe Illustrator 26.3.1, SVG Export Plug-In . SVG Version: 6.00 Build 0)  -->
<svg version="1.1" id="Layer_1" xmlns="http://www.w3.org/2000/svg" xmlns:xlink="http://www.w3.org/1999/xlink" x="0px" y="0px"
	 viewBox="0 0 183 120" style="enable-background:new 0 0 183 120;" xml:space="preserve">
<style type="text/css">
	.st0{clip-path:url(#SVGID_00000129925306360906500590000014700490351594700712_);}
	.st1{fill-rule:evenodd;clip-rule:evenodd;fill:#18204D;}
	.st2{fill:#FFE458;}
	.st3{fill-rule:evenodd;clip-rule:evenodd;fill:#B5CDFB;}
	.st4{fill:#FFFFFF;}
	.st5{clip-path:url(#SVGID_00000145757641497958580560000011665014765988555409_);}
	.st6{clip-path:url(#SVGID_00000061462483865535077120000000201154614943345542_);}
	.st7{fill:#FFFFFF;fill-opacity:0.2;}
	.st8{clip-path:url(#SVGID_00000013155338116854354140000013275510176465366453_);}
	.st9{fill:#FFFFFF;fill-opacity:0.4;}
</style>
<g>
	<defs>
		<rect id="SVGID_1_" x="138.3" y="12.2" width="29.3" height="67.9"/>
	</defs>
	<clipPath id="SVGID_00000027588533706459693660000016240739638959876031_">
		<use xlink:href="#SVGID_1_"  style="overflow:visible;"/>
	</clipPath>
	<g style="clip-path:url(#SVGID_00000027588533706459693660000016240739638959876031_);">
		<path class="st1" d="M153,41.5c8.1,0,14.7-6.6,14.7-14.7s-6.6-14.7-14.7-14.7c-8.1,0-14.7,6.6-14.7,14.7S144.9,41.5,153,41.5z"/>
		<path class="st2" d="M157.5,26.1l-5.2,5.2l2.1,2.1l5.2-5.2L157.5,26.1z"/>
		<path class="st3" d="M146.5,21.1l4.4,4.4c0,0,0,0.1,0,0.1c0,0.5,0.4,0.9,0.9,0.9c0.5,0,0.9-0.4,0.9-0.9c0-0.5-0.4-0.9-0.9-0.9
			c0,0-0.1,0-0.1,0l-4.4-4.4l7.8,1.5h0l1.4,5.2l-3.3,3.3L148,29L146.5,21.1z"/>
	</g>
</g>
<g>
	<path class="st4" d="M21.2,28.4c-1.6,0-2.8-0.4-3.6-1.1s-1.3-1.9-1.3-3.3v-7.4h2.9v7.3c0,0.8,0.2,1.4,0.5,1.8s0.8,0.6,1.5,0.6
		c0.7,0,1.2-0.2,1.5-0.6s0.5-1,0.5-1.8v-7.3h2.9V24c0,1.4-0.4,2.5-1.2,3.3S22.8,28.4,21.2,28.4z"/>
	<path class="st4" d="M38.2,28.2h-3.4l-2.2-3.7l-2.3,3.7H27l3.8-5.9l-3.6-5.8h3.4l2.1,3.5l2.1-3.5H38l-3.6,5.7L38.2,28.2z"/>
	<path class="st4" d="M55.7,28.2h-3.5l-1-1c-0.5,0.4-1.1,0.8-1.7,0.9s-1.2,0.3-1.8,0.3c-1.3,0-2.4-0.3-3.2-1s-1.2-1.5-1.2-2.6
		c0-0.5,0.1-0.8,0.2-1.2s0.3-0.6,0.5-0.9c0.2-0.2,0.4-0.5,0.6-0.6s0.5-0.3,0.7-0.5c-0.2-0.2-0.4-0.4-0.6-0.5s-0.3-0.4-0.5-0.6
		c-0.1-0.2-0.2-0.4-0.3-0.7S44,19.4,44,19.1c0-0.3,0.1-0.7,0.2-1s0.4-0.6,0.7-0.9c0.3-0.3,0.7-0.5,1.2-0.6s1.1-0.3,1.8-0.3
		c0.6,0,1.2,0.1,1.6,0.2s0.8,0.3,1.1,0.5c0.3,0.2,0.5,0.5,0.7,0.8s0.2,0.6,0.2,1c0,0.2,0,0.5-0.1,0.8s-0.2,0.6-0.4,0.8
		c-0.2,0.3-0.5,0.5-0.8,0.8s-0.7,0.4-1.2,0.6l2.2,2.2v-2.5H54v0.9c0,0.2,0,0.5-0.1,0.8s-0.1,0.6-0.2,0.8c-0.1,0.3-0.2,0.5-0.3,0.8
		s-0.3,0.5-0.5,0.8l2.8,2.6V28.2z M49.9,25.9l-3.1-3c-0.1,0.1-0.2,0.3-0.3,0.6s-0.2,0.6-0.2,0.9c0,0.3,0.1,0.6,0.2,0.9
		s0.3,0.5,0.5,0.6s0.4,0.3,0.6,0.4s0.5,0.1,0.7,0.1c0.3,0,0.6,0,0.9-0.1S49.7,26.1,49.9,25.9z M48.8,19.2c0-0.3,0-0.5-0.1-0.6
		s-0.2-0.3-0.3-0.4C48.3,18.1,48.2,18,48,18s-0.2,0-0.3,0c-0.1,0-0.2,0-0.3,0s-0.2,0.1-0.3,0.2c-0.1,0.1-0.2,0.2-0.2,0.3
		s-0.1,0.3-0.1,0.6c0,0.3,0.1,0.6,0.3,0.9s0.5,0.6,0.9,0.9c0.2-0.2,0.4-0.5,0.6-0.7S48.8,19.5,48.8,19.2z"/>
	<path class="st4" d="M65.9,28.4c-1.6,0-2.8-0.4-3.6-1.1S61,25.4,61,24v-7.4h2.9v7.3c0,0.8,0.2,1.4,0.5,1.8s0.8,0.6,1.5,0.6
		c0.7,0,1.2-0.2,1.5-0.6s0.5-1,0.5-1.8v-7.3h2.9V24c0,1.4-0.4,2.5-1.2,3.3S67.5,28.4,65.9,28.4z"/>
	<path class="st4" d="M78.8,28.2h-6.3v-2h1.7v-7.6h-1.7v-2h6.3v2h-1.7v7.6h1.7V28.2z"/>
</g>
<g>
	<path class="st4" d="M24,37.6c0,0.9-0.2,1.7-0.5,2.4c-0.4,0.7-0.8,1.3-1.5,1.7c-0.5,0.3-1,0.5-1.5,0.6c-0.5,0.1-1.2,0.2-2,0.2h-2.3
		v-9.8h2.2c0.9,0,1.6,0.1,2.2,0.2c0.5,0.1,1,0.3,1.3,0.6c0.6,0.4,1.1,1,1.5,1.7C23.9,35.8,24,36.6,24,37.6z M22.7,37.6
		c0-0.8-0.1-1.4-0.4-1.9s-0.6-1-1.1-1.2c-0.3-0.2-0.7-0.4-1.1-0.5c-0.4-0.1-0.9-0.1-1.5-0.1h-1v7.6h1c0.6,0,1.1,0,1.5-0.1
		s0.8-0.3,1.2-0.5c0.5-0.3,0.8-0.7,1-1.2C22.6,39,22.7,38.3,22.7,37.6z"/>
	<path class="st4" d="M25.5,42.5v-9.8h6.1v1.2h-4.8v2.7h4.5v1.2h-4.5v3.6h4.8v1.2H25.5z"/>
	<path class="st4" d="M35.8,42.7c-0.7,0-1.3-0.1-1.8-0.2c-0.5-0.1-1-0.3-1.4-0.5v-1.6h0.1c0.4,0.4,0.9,0.7,1.5,0.9
		c0.5,0.2,1.1,0.3,1.6,0.3c0.7,0,1.3-0.2,1.6-0.5c0.4-0.3,0.6-0.7,0.6-1.2c0-0.4-0.1-0.7-0.3-1s-0.5-0.4-0.9-0.5
		c-0.3-0.1-0.6-0.2-0.8-0.2s-0.6-0.1-0.9-0.2c-0.3-0.1-0.6-0.2-0.9-0.3s-0.5-0.3-0.7-0.5c-0.2-0.2-0.4-0.5-0.5-0.8
		c-0.1-0.3-0.2-0.6-0.2-1c0-0.8,0.3-1.5,0.9-2c0.6-0.5,1.4-0.8,2.4-0.8c0.5,0,1.1,0.1,1.6,0.2c0.5,0.1,0.9,0.3,1.4,0.5v1.6h-0.1
		c-0.3-0.3-0.7-0.5-1.2-0.7c-0.5-0.2-1-0.3-1.5-0.3c-0.6,0-1.1,0.1-1.5,0.4c-0.4,0.3-0.6,0.7-0.6,1.1c0,0.4,0.1,0.7,0.3,1
		c0.2,0.2,0.5,0.4,1,0.5c0.3,0.1,0.6,0.2,1,0.3c0.4,0.1,0.7,0.2,1,0.3c0.7,0.2,1.2,0.5,1.5,0.9s0.5,0.9,0.5,1.5
		c0,0.4-0.1,0.8-0.2,1.1c-0.2,0.4-0.4,0.7-0.7,0.9c-0.3,0.3-0.7,0.5-1.1,0.7C36.9,42.6,36.4,42.7,35.8,42.7z"/>
	<path class="st4" d="M44,42.5h-3.8v-1h1.3v-7.8h-1.3v-1H44v1h-1.3v7.8H44V42.5z"/>
	<path class="st4" d="M49.7,42.7c-0.7,0-1.3-0.1-1.9-0.3c-0.6-0.2-1.1-0.5-1.5-1c-0.4-0.4-0.7-1-0.9-1.6c-0.2-0.6-0.3-1.4-0.3-2.2
		c0-0.8,0.1-1.5,0.3-2.1c0.2-0.6,0.5-1.2,1-1.6c0.4-0.4,0.9-0.8,1.5-1s1.2-0.3,1.9-0.3c0.3,0,0.6,0,0.9,0.1s0.6,0.1,0.9,0.2
		c0.2,0.1,0.5,0.2,0.7,0.3c0.3,0.1,0.5,0.2,0.7,0.3v1.6h-0.1c-0.2-0.1-0.3-0.3-0.5-0.4c-0.2-0.1-0.4-0.3-0.7-0.4
		c-0.3-0.1-0.6-0.2-0.9-0.3s-0.7-0.1-1.1-0.1c-0.9,0-1.7,0.4-2.3,1.1c-0.6,0.7-0.9,1.7-0.9,2.8c0,0.7,0.1,1.2,0.2,1.7
		s0.4,0.9,0.7,1.3c0.3,0.3,0.6,0.6,1,0.8c0.4,0.2,0.8,0.3,1.3,0.3c0.4,0,0.7,0,1.1-0.1s0.7-0.1,0.9-0.2v-2.5h-2.3v-1.1H53v4.3
		c-0.2,0.1-0.4,0.2-0.7,0.3c-0.3,0.1-0.5,0.2-0.8,0.3c-0.3,0.1-0.6,0.2-0.9,0.2S50.1,42.7,49.7,42.7z"/>
	<path class="st4" d="M61.6,42.5h-1.5L55.8,34v8.5h-1.2v-9.8h1.9l3.9,7.8v-7.8h1.2V42.5z"/>
	<path class="st4" d="M63.6,42.5v-9.8h6.1v1.2h-4.8v2.7h4.5v1.2h-4.5v3.6h4.8v1.2H63.6z"/>
	<path class="st4" d="M78.8,42.5h-1.7L74,38.6h-1.5v3.9h-1.3v-9.8h2.5c0.6,0,1,0,1.4,0.1c0.4,0.1,0.7,0.2,1.1,0.4
		c0.3,0.2,0.6,0.5,0.8,0.9c0.2,0.3,0.3,0.8,0.3,1.3c0,0.7-0.2,1.3-0.5,1.8c-0.4,0.5-0.9,0.8-1.5,1.1L78.8,42.5z M76,35.4
		c0-0.3-0.1-0.5-0.2-0.8c-0.1-0.2-0.3-0.4-0.5-0.5c-0.2-0.1-0.4-0.2-0.6-0.3c-0.2-0.1-0.6-0.1-0.9-0.1h-1.3v3.7h1.1
		c0.4,0,0.7,0,1-0.1s0.6-0.2,0.8-0.4c0.2-0.2,0.3-0.4,0.4-0.7C75.9,36.1,76,35.8,76,35.4z"/>
</g>
<g>
	<defs>
		<rect id="SVGID_00000008832775288144479340000010174807313317649068_" x="15.3" y="2.9" width="64.6" height="101.6"/>
	</defs>
	<clipPath id="SVGID_00000085928956272625691790000007392289680218009763_">
		<use xlink:href="#SVGID_00000008832775288144479340000010174807313317649068_"  style="overflow:visible;"/>
	</clipPath>
	<g style="clip-path:url(#SVGID_00000085928956272625691790000007392289680218009763_);">
		<g>
			<defs>
				<rect id="SVGID_00000080174768964503206030000009955333028165337483_" x="15.3" y="61.5" width="64.6" height="43"/>
			</defs>
			<clipPath id="SVGID_00000129909274224034294300000013434967000451020726_">
				<use xlink:href="#SVGID_00000080174768964503206030000009955333028165337483_"  style="overflow:visible;"/>
			</clipPath>
			<g style="clip-path:url(#SVGID_00000129909274224034294300000013434967000451020726_);">
				<path class="st7" d="M16.5,61.5h62.2c0.7,0,1.2,0.5,1.2,1.2v0c0,0.7-0.5,1.2-1.2,1.2H16.5c-0.7,0-1.2-0.5-1.2-1.2v0
					C15.3,62,15.9,61.5,16.5,61.5z"/>
				<path class="st7" d="M16.5,68.7h32.3c0.7,0,1.2,0.5,1.2,1.2v0c0,0.7-0.5,1.2-1.2,1.2H16.5c-0.7,0-1.2-0.5-1.2-1.2v0
					C15.3,69.2,15.9,68.7,16.5,68.7z"/>
				<path class="st7" d="M16.5,75.8h44.2c0.7,0,1.2,0.5,1.2,1.2v0c0,0.7-0.5,1.2-1.2,1.2H16.5c-0.7,0-1.2-0.5-1.2-1.2v0
					C15.3,76.4,15.9,75.8,16.5,75.8z"/>
				<g>
					<defs>
						<rect id="SVGID_00000090264100253880034810000012822428411336031917_" x="15.3" y="83" width="49.6" height="21.5"/>
					</defs>
					<clipPath id="SVGID_00000153669044678982748820000003688214193103406520_">
						<use xlink:href="#SVGID_00000090264100253880034810000012822428411336031917_"  style="overflow:visible;"/>
					</clipPath>
					<g style="clip-path:url(#SVGID_00000153669044678982748820000003688214193103406520_);">
						<path class="st7" d="M16.5,83h32.3c0.7,0,1.2,0.5,1.2,1.2v0c0,0.7-0.5,1.2-1.2,1.2H16.5c-0.7,0-1.2-0.5-1.2-1.2v0
							C15.3,83.6,15.9,83,16.5,83z"/>
						<path class="st9" d="M17.7,99.8h44.8c1.3,0,2.4,1.1,2.4,2.4v0c0,1.3-1.1,2.4-2.4,2.4H17.7c-1.3,0-2.4-1.1-2.4-2.4v0
							C15.3,100.8,16.4,99.8,17.7,99.8z"/>
					</g>
				</g>
			</g>
		</g>
	</g>
</g>
</svg>
