<?xml version="1.0" encoding="utf-8"?>
<!-- Generator: Adobe Illustrator 26.3.1, SVG Export Plug-In . SVG Version: 6.00 Build 0)  -->
<svg version="1.1" id="Layer_1" xmlns="http://www.w3.org/2000/svg" xmlns:xlink="http://www.w3.org/1999/xlink" x="0px" y="0px"
	 viewBox="0 0 701 428" style="enable-background:new 0 0 701 428;" xml:space="preserve">
<style type="text/css">
	.st0{fill:#1A164A;fill-opacity:0.63;}
	.st1{fill:#1A164A;filter:url(#Adobe_OpacityMaskFilter);}
	.st2{mask:url(#mask0_00000174574551596709193760000002349494257140458373_);}
	.st3{fill-rule:evenodd;clip-rule:evenodd;fill:url(#SVGID_1_);}
	.st4{fill-rule:evenodd;clip-rule:evenodd;fill:#14BEFD;}
	.st5{fill-rule:evenodd;clip-rule:evenodd;fill:url(#SVGID_00000080171690951066741230000002102954554261344171_);}
	.st6{opacity:0.2;}
	
		.st7{fill:none;stroke:url(#SVGID_00000116233760239201744990000012264552545279286950_);stroke-width:3.3906;stroke-linecap:round;stroke-dasharray:33.91,16.95;}
	.st8{fill:#FFFFFF;fill-opacity:0.6;}
	.st9{opacity:0.6;fill:#FFFFFF;fill-opacity:0.6;}
	.st10{fill:#FFFFFF;fill-opacity:0.3;}
	.st11{clip-path:url(#SVGID_00000044151456015602361260000011487794576605698218_);}
	.st12{fill:#EB6A5D;}
	.st13{fill:#F3BE4F;}
	.st14{fill:#64C354;}
	.st15{fill:#FFFFFF;}
	.st16{fill:#53C1DE;}
	.st17{fill:#A179DC;}
	.st18{fill:#280068;}
	.st19{fill:#390091;}
	.st20{fill:#F7DF1E;}
</style>
<path class="st0" d="M0,0h692.5c4.7,0,8.5,3.1,8.5,6.8v414.3c0,3.8-3.8,6.8-8.5,6.8H0V0z"/>
<defs>
	<filter id="Adobe_OpacityMaskFilter" filterUnits="userSpaceOnUse" x="-43.7" y="-40.8" width="815" height="800.5">
		<feColorMatrix  type="matrix" values="1 0 0 0 0  0 1 0 0 0  0 0 1 0 0  0 0 0 1 0"/>
	</filter>
</defs>
<mask maskUnits="userSpaceOnUse" x="-43.7" y="-40.8" width="815" height="800.5" id="mask0_00000174574551596709193760000002349494257140458373_">
	<path class="st1" d="M922.9,441.2h-935c-6.3,0-11.5-5.1-11.5-11.5v-695.2c0-6.3,5.1-11.5,11.5-11.5h935V441.2z"/>
</mask>
<g class="st2">
	
		<linearGradient id="SVGID_1_" gradientUnits="userSpaceOnUse" x1="177.8347" y1="1629.0643" x2="794.6636" y2="1237.7822" gradientTransform="matrix(-1 0 0 1 879.2943 -1099.8171)">
		<stop  offset="0" style="stop-color:#E1467C"/>
		<stop  offset="1" style="stop-color:#FF9CE3"/>
	</linearGradient>
	<path class="st3" d="M61.2,178.4c-44,107.6-116.8,292.8,71.4,400.5s275.7,38.7,358,7c82.2-31.8,285.7-52.5,255.1-180.9
		s-37.4-353-183.6-353c-146.2,0-126.6,60.9-220.4,71.6C247.7,134.5,105.2,70.8,61.2,178.4z"/>
	<path class="st4" d="M47.5,85.5C1.9,193.2-73.3,378.3,121.3,486.1s285.2,38.7,370.2,7c85-31.8,295.4-52.5,263.8-180.9
		c-31.6-128.4-38.7-353-189.8-353c-151.2,0-130.9,60.9-228,71.6C240.4,41.6,93-22.1,47.5,85.5z"/>
	<g>
		
			<linearGradient id="SVGID_00000008129677519111466160000005945685222876391348_" gradientUnits="userSpaceOnUse" x1="877.4036" y1="1344.7262" x2="174.9719" y2="1733.9602" gradientTransform="matrix(-1 0 0 1 879.2943 -1099.8171)">
			<stop  offset="0" style="stop-color:#E0695B"/>
			<stop  offset="1" style="stop-color:#3913B8"/>
		</linearGradient>
		<path style="fill-rule:evenodd;clip-rule:evenodd;fill:url(#SVGID_00000008129677519111466160000005945685222876391348_);" d="
			M727.4,588.2c41.3-121,109.1-329-104.5-434.9c-213.5-106-305.1-24.6-393.3,15.7c-88.2,40.2-310.1,76.2-268.1,215.1
			C3.5,523,25.6,769,186,759.5c160.4-9.5,134.9-75,237.3-93C525.6,648.6,686.2,709.2,727.4,588.2z"/>
	</g>
	<g class="st6">
		
			<linearGradient id="SVGID_00000103263191715136932400000000029470378241721255_" gradientUnits="userSpaceOnUse" x1="869.6613" y1="1328.2889" x2="250.9836" y2="1671.1125" gradientTransform="matrix(-1 0 0 1 879.2943 -1099.8171)">
			<stop  offset="0" style="stop-color:#FF5A3D"/>
			<stop  offset="1" style="stop-color:#2FB8FF"/>
		</linearGradient>
		
			<path style="fill:none;stroke:url(#SVGID_00000103263191715136932400000000029470378241721255_);stroke-width:3.3906;stroke-linecap:round;stroke-dasharray:33.91,16.95;" d="
			M649.3,532.1c35.4-105,93.5-285.4-95.1-379.2c-188.6-93.8-268.5-23.6-345.8,10.7c-77.2,34.3-272.1,64-234.2,185.2
			S33.4,684.1,174.4,677c141-7.1,118.1-64.3,208-79.1C472.2,583.1,613.9,637,649.3,532.1z"/>
	</g>
</g>
<path class="st8" d="M78.6,92.2h143.6c1.3,0,2.4,1.1,2.4,2.4v4.3c0,1.3-1.1,2.4-2.4,2.4H78.6c-1.3,0-2.4-1.1-2.4-2.4v-4.3
	C76.2,93.2,77.3,92.2,78.6,92.2z"/>
<path class="st8" d="M78.6,113.2h64.2c1.3,0,2.4,1.1,2.4,2.4v4.3c0,1.3-1.1,2.4-2.4,2.4H78.6c-1.3,0-2.4-1.1-2.4-2.4v-4.3
	C76.2,114.2,77.3,113.2,78.6,113.2z"/>
<path class="st9" d="M104.8,290.3h80.7c1.6,0,3,3.5,3,7.8v14.2c0,4.3-1.3,7.8-3,7.8h-80.7c-1.6,0-3-3.5-3-7.8v-14.2
	C101.8,293.8,103.2,290.3,104.8,290.3z"/>
<path class="st10" d="M77.7,134.1h136.3c0.8,0,1.5,0.7,1.5,1.5v0c0,0.8-0.7,1.5-1.5,1.5H77.7c-0.8,0-1.5-0.7-1.5-1.5v0
	C76.2,134.8,76.9,134.1,77.7,134.1z"/>
<path class="st10" d="M77.7,149.1h100.4c0.8,0,1.5,0.7,1.5,1.5l0,0c0,0.8-0.7,1.5-1.5,1.5H77.7c-0.8,0-1.5-0.7-1.5-1.5l0,0
	C76.2,149.8,76.9,149.1,77.7,149.1z"/>
<path class="st10" d="M77.7,164.1h118.4c0.8,0,1.5,0.7,1.5,1.5l0,0c0,0.8-0.7,1.5-1.5,1.5H77.7c-0.8,0-1.5-0.7-1.5-1.5l0,0
	C76.2,164.8,76.9,164.1,77.7,164.1z"/>
<g>
	<defs>
		<rect id="SVGID_00000068665473114094294080000005754259735643516049_" x="13.7" y="13.7" width="37" height="8.2"/>
	</defs>
	<clipPath id="SVGID_00000109725423276909518440000004220969196798185894_">
		<use xlink:href="#SVGID_00000068665473114094294080000005754259735643516049_"  style="overflow:visible;"/>
	</clipPath>
	<g style="clip-path:url(#SVGID_00000109725423276909518440000004220969196798185894_);">
		<path class="st12" d="M17.8,13.7L17.8,13.7c2.3,0,4.1,1.8,4.1,4.1v0c0,2.3-1.8,4.1-4.1,4.1l0,0c-2.3,0-4.1-1.8-4.1-4.1v0
			C13.7,15.5,15.5,13.7,17.8,13.7z"/>
		<path class="st13" d="M32.2,13.7L32.2,13.7c2.3,0,4.1,1.8,4.1,4.1v0c0,2.3-1.8,4.1-4.1,4.1l0,0c-2.3,0-4.1-1.8-4.1-4.1v0
			C28.1,15.5,29.9,13.7,32.2,13.7z"/>
		<path class="st14" d="M46.6,13.7L46.6,13.7c2.3,0,4.1,1.8,4.1,4.1v0c0,2.3-1.8,4.1-4.1,4.1h0c-2.3,0-4.1-1.8-4.1-4.1v0
			C42.4,15.5,44.3,13.7,46.6,13.7z"/>
	</g>
</g>
<g>
	<path class="st15" d="M480.2,139.9c0,6,5.8,11.5,15,14.6c-1.8,9.2-0.3,16.6,4.7,19.5c5.2,3,12.8,0.9,20.1-5.5
		c7.1,6.1,14.3,8.5,19.3,5.6c5.2-3,6.7-10.9,4.8-20.4c9.5-3.2,14.9-7.9,14.9-13.9c0-5.8-5.8-10.8-14.9-14c2-9.9,0.3-17.1-4.9-20.2
		c-5-2.9-12.3-0.4-19.5,5.9c-7.5-6.7-14.7-8.7-19.9-5.7c-5,2.9-6.5,10.5-4.6,19.9C486.3,129,480.2,134.1,480.2,139.9z"/>
	<path class="st16" d="M542.3,129.1c-0.7-0.2-1.5-0.5-2.3-0.7c0.1-0.5,0.2-1,0.3-1.5c1.7-8.3,0.6-15-3.2-17.1
		c-3.7-2.1-9.6,0.1-15.7,5.3c-0.6,0.5-1.2,1-1.7,1.6c-0.4-0.4-0.8-0.7-1.2-1.1c-6.3-5.6-12.7-8-16.5-5.8c-3.6,2.1-4.7,8.4-3.2,16.2
		c0.1,0.8,0.3,1.5,0.5,2.3c-0.9,0.3-1.8,0.5-2.6,0.8c-7.4,2.6-12.1,6.6-12.1,10.8c0,4.3,5.1,8.7,12.8,11.3c0.6,0.2,1.2,0.4,1.9,0.6
		c-0.2,0.9-0.4,1.7-0.5,2.5c-1.5,7.7-0.3,13.8,3.3,15.9c3.8,2.2,10.1-0.1,16.2-5.4c0.5-0.4,1-0.9,1.5-1.3c0.6,0.6,1.3,1.2,1.9,1.7
		c5.9,5.1,11.8,7.2,15.5,5.1c3.8-2.2,5-8.8,3.4-16.8c-0.1-0.6-0.3-1.2-0.4-1.9c0.4-0.1,0.9-0.3,1.3-0.4c8-2.7,13.2-7,13.2-11.4
		C554.7,135.7,549.8,131.7,542.3,129.1L542.3,129.1L542.3,129.1z"/>
	<path class="st15" d="M540.5,148.5c-0.4,0.1-0.8,0.2-1.2,0.4c-0.9-2.8-2.1-5.8-3.5-8.9c1.4-3,2.5-6,3.4-8.7
		c0.7,0.2,1.4,0.4,2.1,0.7c6.5,2.2,10.4,5.5,10.4,8.1C551.7,142.7,547.4,146.2,540.5,148.5L540.5,148.5L540.5,148.5z M537.6,154.2
		c0.7,3.5,0.8,6.7,0.3,9.2c-0.4,2.2-1.3,3.7-2.3,4.3c-2.2,1.3-6.9-0.4-12-4.8c-0.6-0.5-1.2-1-1.8-1.6c2-2.2,3.9-4.7,5.9-7.5
		c3.4-0.3,6.6-0.8,9.5-1.5C537.4,153.1,537.5,153.6,537.6,154.2L537.6,154.2L537.6,154.2z M508.6,167.5c-2.2,0.8-3.9,0.8-4.9,0.2
		c-2.2-1.3-3.1-6.2-1.9-12.8c0.1-0.8,0.3-1.5,0.5-2.3c2.9,0.6,6,1.1,9.4,1.4c1.9,2.7,4,5.2,6,7.4c-0.4,0.4-0.9,0.8-1.3,1.2
		C513.7,165,511,166.7,508.6,167.5L508.6,167.5L508.6,167.5z M498.5,148.5c-3.4-1.2-6.2-2.7-8.2-4.3c-1.7-1.5-2.6-3-2.6-4.2
		c0-2.5,3.8-5.8,10.1-8c0.8-0.3,1.6-0.5,2.4-0.8c0.9,2.8,2,5.8,3.4,8.8c-1.4,3.1-2.6,6.1-3.5,9C499.6,148.8,499,148.6,498.5,148.5
		L498.5,148.5L498.5,148.5z M501.9,125.4c-1.3-6.7-0.4-11.8,1.8-13.1c2.3-1.4,7.5,0.6,13,5.4c0.3,0.3,0.7,0.6,1.1,1
		c-2,2.2-4,4.7-6,7.4c-3.3,0.3-6.4,0.8-9.3,1.5C502.2,126.8,502,126.1,501.9,125.4L501.9,125.4L501.9,125.4z M532.1,132.9
		c-0.7-1.2-1.4-2.4-2.1-3.5c2.2,0.3,4.4,0.7,6.4,1.1c-0.6,1.9-1.4,4-2.2,6C533.4,135.3,532.8,134.1,532.1,132.9L532.1,132.9
		L532.1,132.9z M519.7,120.9c1.4,1.5,2.8,3.2,4.1,5c-1.4-0.1-2.8-0.1-4.2-0.1c-1.4,0-2.8,0-4.1,0.1
		C516.9,124.1,518.3,122.4,519.7,120.9L519.7,120.9L519.7,120.9z M507.3,132.9c-0.7,1.2-1.4,2.4-2,3.6c-0.9-2.1-1.6-4.1-2.2-6.1
		c2-0.4,4.1-0.8,6.3-1.1C508.8,130.5,508,131.7,507.3,132.9L507.3,132.9L507.3,132.9z M509.6,150.8c-2.3-0.3-4.5-0.6-6.5-1
		c0.6-2,1.4-4.1,2.3-6.2c0.6,1.2,1.3,2.4,2,3.6h0C508.1,148.4,508.8,149.6,509.6,150.8L509.6,150.8L509.6,150.8z M519.8,159.2
		c-1.4-1.5-2.8-3.2-4.2-5c1.3,0.1,2.7,0.1,4.1,0.1c1.4,0,2.8,0,4.2-0.1C522.6,156,521.2,157.7,519.8,159.2L519.8,159.2L519.8,159.2z
		 M534.1,143.4c0.9,2.1,1.7,4.2,2.4,6.2c-2,0.5-4.2,0.8-6.5,1.1c0.7-1.2,1.4-2.3,2.1-3.6C532.8,145.9,533.5,144.7,534.1,143.4
		L534.1,143.4L534.1,143.4z M529.5,145.7c-1.1,1.9-2.2,3.7-3.4,5.4c-2.1,0.1-4.2,0.2-6.4,0.2c-2.2,0-4.3-0.1-6.3-0.2
		c-1.2-1.7-2.3-3.5-3.4-5.4h0c-1.1-1.9-2.1-3.8-3-5.6c0.9-1.9,1.9-3.8,3-5.6l0,0c1.1-1.9,2.2-3.7,3.4-5.4c2.1-0.2,4.2-0.2,6.4-0.2h0
		c2.2,0,4.3,0.1,6.4,0.2c1.2,1.7,2.3,3.5,3.4,5.4c1.1,1.9,2.1,3.8,3,5.6C531.6,141.9,530.6,143.8,529.5,145.7L529.5,145.7
		L529.5,145.7z M535.6,112.3c2.3,1.4,3.3,6.8,1.8,14c-0.1,0.5-0.2,0.9-0.3,1.4c-2.9-0.7-6.1-1.2-9.4-1.5c-1.9-2.7-3.9-5.2-5.9-7.4
		c0.5-0.5,1.1-1,1.6-1.5C528.6,112.8,533.4,111,535.6,112.3L535.6,112.3L535.6,112.3z"/>
	<path class="st16" d="M519.7,133.7c3.5,0,6.3,2.8,6.3,6.3c0,3.5-2.8,6.3-6.3,6.3c-3.5,0-6.3-2.8-6.3-6.3
		C513.5,136.5,516.3,133.7,519.7,133.7"/>
</g>
<g>
	<path class="st17" d="M651.9,128.8c0-1.2-0.3-2.2-0.8-3.1c-0.5-0.9-1.3-1.6-2.3-2.2c-8.4-4.8-16.8-9.7-25.2-14.5
		c-2.3-1.3-4.5-1.3-6.7,0.1c-3.3,2-20.1,11.6-25.1,14.4c-2.1,1.2-3.1,3-3.1,5.4c0,9.7,0,19.5,0,29.2c0,1.2,0.2,2.2,0.7,3.1
		c0.5,0.9,1.3,1.7,2.3,2.3c5,2.9,21.7,12.5,25.1,14.4c2.2,1.3,4.4,1.4,6.7,0.1c8.4-4.8,16.8-9.7,25.2-14.5c1-0.6,1.8-1.4,2.3-2.3
		c0.5-0.9,0.7-1.9,0.7-3.1C651.9,158,651.9,138.6,651.9,128.8"/>
	<path class="st18" d="M620.5,143.3l-30.9,17.8c0.5,0.9,1.3,1.7,2.3,2.3c5,2.9,21.7,12.5,25.1,14.4c2.2,1.3,4.4,1.4,6.7,0.1
		c8.4-4.8,16.8-9.7,25.2-14.5c1-0.6,1.8-1.4,2.3-2.3L620.5,143.3"/>
	<path class="st19" d="M651.9,128.8c0-1.2-0.3-2.2-0.8-3.1l-30.7,17.7l30.7,17.8c0.5-0.9,0.7-1.9,0.7-3.1
		C651.9,158,651.9,138.6,651.9,128.8"/>
	<path class="st15" d="M638.7,136.7v3.3h3.3v-3.3h1.7v3.3h3.3v1.7h-3.3v3.3h3.3v1.7h-3.3v3.3H642v-3.3h-3.3v3.3H637v-3.3h-3.3V145
		h3.3v-3.3h-3.3V140h3.3v-3.3H638.7z M642,141.7h-3.3v3.3h3.3V141.7z"/>
	<path class="st15" d="M620.6,120c8.7,0,16.2,4.7,20.3,11.7l0-0.1l-10.2,5.9c-2-3.4-5.7-5.7-9.9-5.7l-0.1,0
		c-6.4,0-11.7,5.2-11.7,11.7c0,2.1,0.6,4.1,1.5,5.8c2,3.5,5.8,5.9,10.1,5.9c4.4,0,8.2-2.4,10.2-5.9l0,0.1l10.2,5.9
		c-4,6.9-11.5,11.6-20,11.7l-0.3,0c-8.7,0-16.3-4.7-20.3-11.8c-2-3.4-3.1-7.4-3.1-11.7C597.1,130.5,607.6,120,620.6,120z"/>
</g>
<g>
	<path class="st20" d="M376.7,104.5h70.9v70.9h-70.9V104.5z"/>
	<path d="M395.3,163.7l5.4-3.3c1,1.9,2,3.4,4.3,3.4c2.2,0,3.6-0.9,3.6-4.2v-22.6h6.7v22.7c0,6.9-4,10-9.9,10
		C400,169.8,396.9,167.1,395.3,163.7"/>
	<path d="M418.9,163l5.4-3.1c1.4,2.3,3.3,4,6.6,4c2.8,0,4.5-1.4,4.5-3.3c0-2.3-1.8-3.1-4.9-4.4l-1.7-0.7c-4.8-2-8-4.6-8-10
		c0-5,3.8-8.8,9.8-8.8c4.2,0,7.3,1.5,9.5,5.3l-5.2,3.3c-1.1-2-2.4-2.9-4.3-2.9c-2,0-3.2,1.2-3.2,2.9c0,2,1.2,2.8,4.1,4l1.7,0.7
		c5.7,2.4,8.8,4.9,8.8,10.5c0,6-4.7,9.3-11,9.3C424.8,169.8,420.8,166.9,418.9,163"/>
</g>
</svg>
